<svg xmlns="http://www.w3.org/2000/svg" width="1024" height="1024" viewBox="0.0 0.0 1024.0 1024.0"><g id="others"><path id="169" d="M 233.655,438.563 C 231.060,437.532 229.297,435.917 227.582,433.001 C 226.417,431.021 226.258,430.213 226.255,426.251 C 226.250,422.623 226.479,421.216 227.430,419 C 230.286,412.348 236.971,403 238.873,403 C 240.725,403 247.145,411.544 250.327,418.243 C 251.823,421.395 252.215,422.861 252.397,425.998 C 252.597,429.452 252.477,430.152 251.271,432.558 C 249.533,436.024 248.761,436.849 245.892,438.304 C 243.964,439.281 242.822,439.490 239.642,439.448 C 237.298,439.417 234.917,439.065 233.655,438.563M 245.305,437.253 C 248.123,435.850 249.424,434.322 250.726,430.896 C 252.590,425.986 250.274,418.877 243.920,410 C 241.681,406.873 239.421,404.500 238.679,404.500 C 237.831,404.500 233.904,409.394 231.483,413.470 C 226.241,422.294 225.710,427.694 229.499,433.668 C 232.459,438.336 239.794,440 245.305,437.253" stroke="#E0F0F6" fill="#E0F0F6" stroke-width="1" />
  <path id="169" d="M 325.250,435.231 C 318.623,432.007 316.064,424.732 318.748,416.750 C 320.940,410.229 329.192,398.500 331.587,398.500 C 332.591,398.500 337.231,403.908 338.738,406.832 C 339.281,407.887 340.235,409.545 340.858,410.517 C 343.369,414.437 344.599,418.514 344.623,423 C 344.644,426.739 344.479,427.550 343.257,429.750 C 341.351,433.178 341.144,433.397 338.274,435.043 C 336.053,436.317 335.270,436.488 331.750,436.469 C 328.561,436.452 327.243,436.201 325.250,435.231M 336.820,434.466 C 342.812,431.565 344.986,425.144 342.564,417.500 C 340.855,412.106 333.250,400.072 331.519,400.022 C 330.697,399.998 329.775,401.012 325.399,406.750 C 323.721,408.950 321.656,412.212 320.810,414 C 319.413,416.952 319.271,417.712 319.261,422.287 C 319.251,427.013 319.342,427.476 320.750,429.787 C 323.769,434.744 331.560,437.012 336.820,434.466" stroke="#E0F0F6" fill="#E0F0F6" stroke-width="1" />
  <path id="169" d="M 594.500,394.158 C 589.841,393.391 585.834,390.464 584.249,386.671 C 583.091,383.897 583.284,378.233 584.679,374.109 C 586.931,367.455 594.645,356.500 597.080,356.500 C 598.654,356.500 604.213,363.906 607.422,370.279 C 611.944,379.262 610.957,387.050 604.690,391.829 C 603.158,392.998 597.903,394.612 596.250,394.421 C 595.975,394.390 595.188,394.271 594.500,394.158M 601.558,392.082 C 608.321,389.183 610.880,381.800 607.774,374.154 C 605.161,367.726 598.553,358 596.797,358 C 594.519,358 586.776,370.073 585.037,376.336 C 583.554,381.676 584.951,387.096 588.620,390.236 C 592.429,393.498 596.802,394.122 601.558,392.082" stroke="#E0F0F6" fill="#E0F0F6" stroke-width="1" />
  <path id="169" d="M 734.034,412.962 C 732.539,412.171 730.514,410.740 729.534,409.781 C 726.779,407.089 725.501,401.954 726.462,397.435 C 727.561,392.267 732.777,382.464 736.793,378.017 C 739.121,375.442 740.490,375.392 742.354,377.816 C 743.121,378.815 744.369,380.363 745.125,381.257 C 745.881,382.151 746.500,383.124 746.500,383.419 C 746.500,383.714 747.083,384.810 747.797,385.853 C 749.997,389.072 751.526,392.441 752.480,396.173 C 753.235,399.128 753.303,400.272 752.878,402.750 C 752.239,406.476 749.758,410.509 747.058,412.213 C 744.771,413.657 743.843,413.909 739.750,414.192 C 737.175,414.370 736.365,414.195 734.034,412.962M 744.089,412.228 C 746.998,411.236 749.336,408.948 750.891,405.567 C 753.177,400.601 751.978,395.158 746.648,386.304 C 744.723,383.108 740.138,377.500 739.449,377.500 C 738.316,377.500 732.698,385.204 730.515,389.750 C 727.413,396.214 726.683,399.614 727.521,403.704 C 728.055,406.309 728.486,407.076 730.500,409 C 734.402,412.729 739.242,413.879 744.089,412.228" stroke="#E0F0F6" fill="#E0F0F6" stroke-width="1" />
  <path id="169" d="M 237.250,518.237 C 236.975,518.136 235.773,517.803 234.579,517.495 C 231.518,516.708 228.274,513.582 227.218,510.403 C 225.998,506.728 226.433,500.780 228.248,496.330 C 230.946,489.714 237.494,481 239.767,481 C 241.134,481 243.703,483.981 247.305,489.750 C 254.119,500.663 254.364,509.687 247.993,515.140 C 245.472,517.298 239.433,519.039 237.250,518.237M 244.911,515.648 C 249.630,513.420 251.829,509.204 251.338,503.334 C 250.916,498.305 248.279,492.909 242.561,485.375 C 241.362,483.794 239.999,482.500 239.534,482.500 C 238.415,482.500 236.702,484.401 233.517,489.178 C 229.395,495.361 227.949,498.863 227.637,503.423 C 227.134,510.755 229.876,515.082 236.036,516.678 C 239.343,517.534 241.429,517.292 244.911,515.648" stroke="#E0F0F6" fill="#E0F0F6" stroke-width="1" />
  <path id="169" d="M 772.379,468.487 C 768.494,467.512 764.660,464.219 763.241,460.642 C 762.028,457.584 762.678,456.790 763.972,459.750 C 766.948,466.560 774.552,469.639 780.672,466.513 C 785.119,464.241 788.339,458.746 787.835,454.289 C 787.244,449.058 782.744,440.654 776.973,434 C 776.973,434 775.456,432.250 775.456,432.250 C 775.456,432.250 773.455,434.500 773.455,434.500 C 772.355,435.738 770.434,438.270 769.187,440.128 C 766.878,443.568 763.500,451.192 763.500,452.964 C 763.500,453.502 763.275,454.080 763,454.250 C 761.676,455.068 763.416,448.719 765.877,443.750 C 768.664,438.123 773.867,431.500 775.500,431.500 C 776.721,431.500 780.952,436.363 783.250,440.409 C 783.525,440.894 784.481,442.426 785.375,443.814 C 786.269,445.202 787,446.621 787,446.968 C 787,447.315 787.313,448.308 787.696,449.175 C 789.867,454.094 789.755,457.644 787.288,462.026 C 784.395,467.163 778.053,469.912 772.379,468.487" stroke="#E0F0F6" fill="#E0F0F6" stroke-width="1" />
  <path id="169" d="M 684.790,389.493 C 673.464,385.070 674.481,369.334 686.931,356.375 C 688.186,355.069 689.585,354 690.039,354 C 691.332,354 693.221,355.732 695.665,359.158 C 702.082,368.150 704.381,375.558 702.640,381.638 C 701.850,384.399 698.997,387.585 695.925,389.139 C 692.626,390.808 688.495,390.940 684.790,389.493M 694.793,388.307 C 698.080,386.776 700.254,384.425 701.538,381.015 C 702.436,378.632 702.501,377.892 702.051,375.265 C 701.513,372.128 697.895,364.320 695.561,361.255 C 694.840,360.308 693.492,358.514 692.567,357.267 C 691.640,356.020 690.592,355 690.236,355 C 689.297,355 684.033,360.925 682.062,364.202 C 677.937,371.057 676.841,377.460 678.960,382.326 C 680.336,385.488 681.764,386.875 685.143,388.334 C 688.549,389.805 691.592,389.796 694.793,388.307" stroke="#E0F0F6" fill="#E0F0F6" stroke-width="1" />
  <path id="169" d="M 769.202,366.155 C 762.683,361.839 761.071,358.218 762.227,350.481 C 762.692,347.368 763.386,345.198 764.785,342.480 C 768.231,335.788 772.818,330 774.678,330 C 775.580,330 778.214,332.626 780,335.303 C 780.413,335.921 781.932,338.124 783.376,340.199 C 788.236,347.176 789.576,353.178 787.500,358.666 C 785.298,364.488 781.607,367.026 774.952,367.295 C 771.564,367.431 770.944,367.308 769.202,366.155M 780.472,364.935 C 782.856,363.744 783.953,362.819 785.064,361.067 C 787.820,356.723 788.028,353.087 785.838,347.500 C 783.860,342.453 776.197,331.462 774.692,331.516 C 773.029,331.575 768.179,337.988 765.370,343.842 C 763.590,347.553 763.284,348.689 763.095,352.310 C 762.784,358.223 764.362,361.635 768.665,364.356 C 772.734,366.928 776.148,367.096 780.472,364.935" stroke="#E0F0F6" fill="#E0F0F6" stroke-width="1" />
  <path id="169" d="M 238.250,361.033 C 234.297,360.070 231.697,357.698 229.722,353.250 C 228.590,350.701 228.433,349.799 228.675,347.250 C 229.173,342.029 230.773,338.528 236.588,329.930 C 239.929,324.989 241.552,323.635 243.222,324.396 C 243.826,324.671 245.674,326.888 247.330,329.323 C 254.890,340.441 256.887,347.255 254.476,353.701 C 252.227,359.711 245.432,362.781 238.250,361.033M 247.863,359.321 C 250.173,358.127 251.926,356.135 253.365,353.069 C 254.946,349.704 254.704,346.731 252.370,340.826 C 250.753,336.732 244.489,326.811 242.893,325.813 C 241.730,325.087 239.722,327.037 236.207,332.305 C 230.655,340.625 228.792,346.933 230.343,352.156 C 231.271,355.283 234.949,359.115 237.779,359.906 C 240.452,360.652 245.899,360.337 247.863,359.321" stroke="#E0F0F6" fill="#E0F0F6" stroke-width="1" />
  <path id="169" d="M 728.819,518.004 C 727.482,517.482 725.981,516.686 725.483,516.235 C 724.237,515.107 722.171,511.988 721.766,510.625 C 721.260,508.918 722.439,509.242 723.185,511.015 C 724.174,513.367 727.281,516.334 729.737,517.272 C 734.302,519.015 740.965,517.274 744.048,513.534 C 747.949,508.801 747.900,503.346 743.885,495.250 C 741.300,490.037 740.615,488.926 737.981,485.681 C 735.125,482.161 734.928,482.140 732.212,485.084 C 728.409,489.204 724.934,494.854 723.749,498.849 C 723.354,500.179 722.693,501.714 722.281,502.259 C 720.931,504.045 721.370,501.912 723.300,497.300 C 724.895,493.490 726.026,491.551 730.358,485.201 C 731.803,483.084 734.798,480.815 735.696,481.160 C 736.558,481.491 741.817,488.014 742.503,489.603 C 742.775,490.234 743.210,491.087 743.468,491.500 C 743.727,491.913 744.792,494.050 745.833,496.250 C 747.607,499.997 747.727,500.550 747.736,505 C 747.745,509.341 747.618,509.981 746.261,512.435 C 745.444,513.912 744.095,515.619 743.263,516.228 C 739.435,519.031 733.361,519.778 728.819,518.004" stroke="#E0F0F6" fill="#E0F0F6" stroke-width="1" />
  <path id="169" d="M 436.250,321.517 C 435.700,321.289 434.340,320.860 433.228,320.562 C 430.594,319.858 427.358,317.055 426.044,314.341 C 424.651,311.464 424.632,306.226 425.998,302.254 C 428.456,295.111 435.642,284 437.805,284 C 439.505,284 444.551,289.994 447.697,295.750 C 452.034,303.685 452.456,310.130 448.989,315.500 C 446.103,319.969 439.751,322.970 436.250,321.517M 441.250,319.948 C 443.753,319.317 446.912,316.820 448.543,314.181 C 451.091,310.058 450.703,304.704 447.354,297.788 C 445.385,293.721 440.067,286.219 438.442,285.214 C 437.004,284.325 430.530,293.623 427.659,300.702 C 423.822,310.162 426.608,317.572 434.836,319.784 C 437.897,320.606 438.567,320.623 441.250,319.948" stroke="#E0F0F6" fill="#E0F0F6" stroke-width="1" />
  <path id="169" d="M 80.987,769.125 C 80.719,768.369 80.260,767.337 79.968,766.831 C 79.567,766.138 79.630,765.646 80.224,764.831 C 80.656,764.236 81.545,762.962 82.198,762 C 87.013,754.908 105.067,744.933 118.250,742.083 C 123.352,740.981 135.256,740.272 138.008,740.908 C 139.421,741.234 141.627,741.503 142.913,741.505 C 144.198,741.509 146.322,741.836 147.632,742.234 C 147.632,742.234 150.014,742.957 150.014,742.957 C 150.014,742.957 151.863,741.354 151.863,741.354 C 152.880,740.471 154.107,739.363 154.590,738.890 C 156.442,737.080 164.895,731.126 168,729.447 C 169.787,728.480 172.825,727.042 174.750,726.251 C 176.675,725.461 178.475,724.658 178.750,724.466 C 179.728,723.783 187.832,721.541 193,720.524 C 195.887,719.955 198.644,719.400 199.125,719.292 C 200.111,719.068 200.346,719.933 199.375,720.210 C 199.031,720.308 196.219,720.872 193.125,721.463 C 178.733,724.213 164.166,731.388 154.219,740.625 C 150.672,743.918 150.610,743.930 143.119,742.701 C 135.844,741.506 122.984,741.978 116.250,743.687 C 109.641,745.363 106.305,746.586 100.820,749.341 C 95.075,752.226 89.944,755.679 86.062,759.273 C 83.279,761.849 80.624,765.290 81.073,765.740 C 81.176,765.842 84.914,766.215 89.380,766.567 C 93.846,766.920 97.500,767.412 97.500,767.659 C 97.500,767.920 95.142,767.960 91.875,767.752 C 85.334,767.337 86.017,767.366 84.734,767.441 C 84.094,767.479 83.510,768.054 83.153,769 C 82.447,770.870 81.624,770.918 80.987,769.125" stroke="#E0F0F6" fill="#E0F0F6" stroke-width="1" />
  <path id="169" d="M 292.158,389.837 C 288.763,388.585 285.988,386.097 284.659,383.112 C 283.533,380.582 283.418,379.807 283.673,376.433 C 283.830,374.334 284.413,371.422 284.969,369.962 C 287.164,364.183 294.046,353.882 296.168,353.200 C 297.500,352.772 299.070,354.452 303.223,360.750 C 307.055,366.562 309.500,371.903 309.500,374.461 C 309.500,376.649 308.651,376.370 308.259,374.053 C 307.454,369.291 298.567,354.545 296.500,354.541 C 294.912,354.539 288.055,364.914 285.952,370.500 C 284.602,374.088 284.476,379.947 285.687,382.750 C 287.274,386.422 292.266,389.500 296.635,389.500 C 301.633,389.500 307.301,385.320 308.267,380.923 C 308.493,379.894 308.765,379.565 309.108,379.908 C 309.450,380.250 309.332,381.158 308.740,382.706 C 307.762,385.267 304.385,388.681 301.736,389.788 C 299.710,390.635 294.396,390.662 292.158,389.837" stroke="#E0F0F6" fill="#E0F0F6" stroke-width="1" />
  <path id="169" d="M 624.395,445.119 C 621.879,444.190 618.393,441.155 617.174,438.833 C 616.006,436.607 615.392,431.769 615.986,429.480 C 616.269,428.391 616.718,426.656 616.985,425.625 C 617.473,423.737 621.726,415.952 623.692,413.349 C 626.298,409.897 628.184,408 629.011,408 C 629.925,408 632.267,410.582 635.816,415.500 C 640.532,422.036 642.506,427.026 642.489,432.359 C 642.472,437.649 640.361,441.444 635.817,444.349 C 633.222,446.009 627.797,446.375 624.395,445.119M 633.649,444.043 C 636.403,442.863 639.312,440.018 640.547,437.300 C 643.139,431.593 640.186,422.790 632.317,412.764 C 629.846,409.618 629.240,409.103 628.476,409.512 C 627.404,410.087 622.317,417.087 620.130,421 C 616.893,426.791 616.012,433.892 618.051,437.757 C 621.251,443.824 627.905,446.505 633.649,444.043" stroke="#E0F0F6" fill="#E0F0F6" stroke-width="1" />
  <path id="59" d="M 773,467.558 C 766.492,465.437 762.567,460.240 763.212,454.599 C 763.841,449.096 768.358,440.233 773.455,434.500 C 773.455,434.500 775.456,432.250 775.456,432.250 C 775.456,432.250 776.973,434 776.973,434 C 782.744,440.654 787.244,449.058 787.835,454.289 C 788.163,457.185 787.054,460.274 784.557,463.428 C 781.999,466.658 776.388,468.663 773,467.558" stroke="#63BCFD" fill="#63BCFD" stroke-width="1" />
  <path id="59" d="M 551.290,350.993 C 548.415,349.870 545.748,347.471 544.630,345 C 543.450,342.395 543.612,336.010 544.953,332.250 C 546.764,327.173 553.834,316.500 555.386,316.500 C 556.933,316.500 562.549,323.951 565.641,330.104 C 567.516,333.836 567.744,334.684 567.911,338.593 C 568.082,342.596 567.987,343.139 566.687,345.528 C 563.625,351.152 557.378,353.370 551.290,350.993" stroke="#63BCFD" fill="#63BCFD" stroke-width="1" />
  <path id="59" d="M 672.580,304.696 C 665.626,301.231 663.766,293.114 667.931,284.399 C 670.661,278.683 676.470,270.500 677.795,270.500 C 679.343,270.500 687.106,281.436 689.079,286.397 C 690.527,290.038 690.692,297.356 689.382,299.801 C 688.341,301.743 685.340,304.409 683.178,305.312 C 680.394,306.476 675.590,306.196 672.580,304.696" stroke="#63BCFD" fill="#63BCFD" stroke-width="1" />
  <path id="59" d="M 434.836,319.784 C 426.608,317.572 423.822,310.162 427.659,300.702 C 430.530,293.623 437.004,284.325 438.442,285.214 C 440.067,286.219 445.385,293.721 447.354,297.788 C 451.692,306.744 451.104,312.837 445.435,317.690 C 443.579,319.279 440.258,320.545 438.154,320.466 C 437.656,320.447 436.163,320.140 434.836,319.784" stroke="#63BCFD" fill="#63BCFD" stroke-width="1" />
  <path id="169" d="M 386.363,390.476 C 382.791,389.026 381.715,388.173 379.904,385.351 C 378.320,382.882 378.257,382.596 378.310,378.016 C 378.361,373.519 378.483,372.996 380.466,368.750 C 382.913,363.507 388.595,354.752 390.058,353.969 C 391.545,353.173 392.868,354.247 396.693,359.354 C 400.290,364.156 404.500,372.106 404.500,374.096 C 404.500,374.786 404.748,376.060 405.050,376.927 C 406.134,380.036 403.702,386.570 400.616,388.840 C 396.772,391.669 390.948,392.338 386.363,390.476M 397.253,389.325 C 405.981,385.260 406.149,375.932 397.729,362.916 C 394.820,358.418 391.358,354.719 390.534,355.228 C 390.204,355.433 388.755,357.209 387.315,359.175 C 381.569,367.022 379.361,372.301 379.339,378.250 C 379.325,381.901 379.464,382.476 380.939,384.849 C 384.142,390.002 391.477,392.014 397.253,389.325" stroke="#E0F0F6" fill="#E0F0F6" stroke-width="1" />
  <path id="59" d="M 237.779,359.906 C 234.949,359.115 231.271,355.283 230.343,352.156 C 228.792,346.933 230.655,340.625 236.207,332.305 C 239.722,327.037 241.730,325.087 242.893,325.813 C 244.489,326.811 250.753,336.732 252.370,340.826 C 254.704,346.731 254.946,349.704 253.365,353.069 C 251.926,356.135 250.173,358.127 247.863,359.321 C 245.899,360.337 240.452,360.652 237.779,359.906" stroke="#63BCFD" fill="#63BCFD" stroke-width="1" />
  <path id="59" d="M 735.052,412.088 C 733.843,411.627 731.794,410.238 730.500,409 C 728.486,407.076 728.055,406.309 727.521,403.704 C 726.683,399.614 727.413,396.214 730.515,389.750 C 732.698,385.204 738.316,377.500 739.449,377.500 C 740.138,377.500 744.723,383.108 746.648,386.304 C 751.978,395.158 753.177,400.601 750.891,405.567 C 750.212,407.043 748.914,408.971 748.006,409.853 C 744.921,412.849 739.500,413.784 735.052,412.088" stroke="#63BCFD" fill="#63BCFD" stroke-width="1" />
  <path id="169" d="M 274.158,484.337 C 271.147,483.227 268.084,480.632 266.805,478.110 C 264.218,473.003 264.692,467.265 268.211,461.094 C 273.555,451.721 277.108,447 278.817,447 C 279.885,447 282.984,450.476 285.505,454.500 C 286.452,456.012 287.514,457.475 287.865,457.750 C 289.054,458.683 292.104,468.567 292.108,471.500 C 292.115,476.713 288.816,481.783 284,483.961 C 281.454,485.111 276.747,485.291 274.158,484.337M 283.947,482.683 C 287.064,481.130 289.198,478.442 290.286,474.702 C 291.714,469.791 290.055,464.298 284.336,455 C 282.106,451.375 279.615,448.500 278.704,448.500 C 276.658,448.500 267.990,462.327 266.497,467.973 C 263.731,478.429 274.413,487.433 283.947,482.683" stroke="#E0F0F6" fill="#E0F0F6" stroke-width="1" />
  <path id="59" d="M 772.250,366.036 C 770.059,365.508 766.759,363.281 765.370,361.394 C 763.299,358.580 762.858,356.819 763.095,352.310 C 763.284,348.689 763.590,347.553 765.370,343.842 C 768.179,337.988 773.029,331.575 774.692,331.516 C 776.197,331.462 783.860,342.453 785.838,347.500 C 788.028,353.087 787.820,356.723 785.064,361.067 C 783.953,362.819 782.856,363.744 780.472,364.935 C 777.334,366.503 775.312,366.774 772.250,366.036" stroke="#63BCFD" fill="#63BCFD" stroke-width="1" />
  <path id="59" d="M 685.143,388.334 C 681.764,386.875 680.336,385.488 678.960,382.326 C 676.841,377.460 677.937,371.057 682.062,364.202 C 684.033,360.925 689.297,355 690.236,355 C 690.592,355 691.640,356.020 692.567,357.267 C 693.492,358.514 694.840,360.308 695.561,361.255 C 697.895,364.320 701.513,372.128 702.051,375.265 C 702.501,377.892 702.436,378.632 701.538,381.015 C 700.254,384.425 698.080,386.776 694.793,388.307 C 691.592,389.796 688.549,389.805 685.143,388.334" stroke="#63BCFD" fill="#63BCFD" stroke-width="1" />
  <path id="59" d="M 729.183,517.067 C 725.008,515.116 722,510.495 722,506.029 C 722,500.629 726.679,491.021 732.201,485.084 C 734.937,482.142 735.126,482.161 737.981,485.681 C 740.615,488.926 741.300,490.037 743.885,495.250 C 747.900,503.346 747.949,508.801 744.048,513.534 C 740.844,517.421 733.619,519.138 729.183,517.067" stroke="#63BCFD" fill="#63BCFD" stroke-width="1" />
  <path id="169" d="M 310.502,293.588 C 307.476,292.460 304.356,289.270 303.328,286.252 C 302.322,283.298 302.264,278.062 303.204,274.966 C 305.103,268.709 312.770,257 314.967,257 C 317.214,257 324.187,267.026 326.975,274.267 C 328.098,277.183 328.500,279.062 328.500,281.394 C 328.500,290.913 319.565,296.966 310.502,293.588M 320.899,292.207 C 325.970,289.680 328.485,283.938 327.037,278.190 C 326.709,276.889 325.427,273.768 324.188,271.254 C 321.834,266.481 316.255,258.500 315.272,258.500 C 314.437,258.500 311.417,261.808 309.074,265.291 C 301.341,276.783 301.769,288.152 310.087,292.175 C 313.731,293.938 317.404,293.949 320.899,292.207" stroke="#E0F0F6" fill="#E0F0F6" stroke-width="1" />
  <path id="59" d="M 748.242,586.449 C 740.109,582.158 739.206,574.199 745.632,563.446 C 748.023,559.446 751.793,554.612 753.162,553.795 C 753.936,553.333 754.455,553.662 756.587,555.965 C 760.149,559.812 763.092,564.649 765.136,570.016 C 767.658,576.635 764.334,584.600 758.174,586.698 C 754.822,587.841 750.684,587.737 748.242,586.449" stroke="#63BCFD" fill="#63BCFD" stroke-width="1" />
  <path id="56" d="M 186.380,370.788 C 185.351,370.421 183.970,369.768 183.311,369.337 C 181.911,368.419 179.995,364.719 180.012,362.967 C 180.032,360.882 182.209,356.315 185.219,352.044 C 187.473,348.846 188.339,347.978 189.160,348.098 C 190.537,348.298 196.042,354.897 197.763,358.411 C 198.863,360.659 199.070,361.655 198.887,363.852 C 198.616,367.126 197.443,368.866 194.490,370.375 C 192.008,371.643 189.179,371.788 186.380,370.788" stroke="#ACDCFD" fill="#ACDCFD" stroke-width="1" />
  <path id="56" d="M 719.598,340.580 C 716.572,339.502 714.189,337.481 713.188,335.141 C 712.202,332.836 712.339,328.435 713.501,325.113 C 714.674,321.758 719.069,315.092 721.963,312.277 C 721.963,312.277 723.992,310.305 723.992,310.305 C 723.992,310.305 725.532,311.777 725.532,311.777 C 729.626,315.692 735,325.932 735,329.820 C 735,331.440 733.559,335.499 732.408,337.123 C 729.866,340.709 724.229,342.229 719.598,340.580" stroke="#ACDCFD" fill="#ACDCFD" stroke-width="1" />
  <path id="56" d="M 267.250,319.755 C 264.488,318.786 261.187,315.086 260.743,312.460 C 260.231,309.430 260.854,306.421 262.776,302.634 C 265.091,298.070 269.504,292.288 270.815,292.099 C 272.714,291.826 279.526,301.142 281.081,306.137 C 282.139,309.535 282.194,310.531 281.470,313.139 C 279.908,318.765 273.256,321.861 267.250,319.755" stroke="#ACDCFD" fill="#ACDCFD" stroke-width="1" />
  <path id="56" d="M 494.327,308.301 C 488.310,306.060 486.884,299.475 490.730,291.692 C 492.677,287.752 497.455,281.316 498.822,280.791 C 499.818,280.409 500.777,281.435 504.579,286.949 C 509.471,294.041 510.636,299.190 508.337,303.546 C 506.552,306.927 503.828,308.586 499.670,308.822 C 497.477,308.947 495.560,308.760 494.327,308.301" stroke="#ACDCFD" fill="#ACDCFD" stroke-width="1" />
  <path id="56" d="M 190,295.156 C 188.109,294.832 184.921,292.447 183.791,290.512 C 182.354,288.052 182.510,284.438 184.201,280.985 C 185.824,277.670 190.228,271.573 191.296,271.163 C 192.960,270.524 199.893,279.389 201.030,283.611 C 202.137,287.722 200.190,292.354 196.580,294.202 C 195.030,294.994 191.792,295.464 190,295.156" stroke="#ACDCFD" fill="#ACDCFD" stroke-width="1" />
  <path id="56" d="M 527.453,263.356 C 525.817,262.506 524.941,261.593 524.048,259.806 C 522.851,257.410 522.849,257.385 523.659,253.653 C 524.122,251.518 525.149,248.797 526.047,247.328 C 528.358,243.544 531.943,239.500 532.987,239.500 C 534.971,239.500 541.413,248.717 542.449,253.039 C 543.553,257.640 541.726,261.829 537.805,263.690 C 535.201,264.926 530.164,264.764 527.453,263.356" stroke="#ACDCFD" fill="#ACDCFD" stroke-width="1" />
  <path id="56" d="M 625.895,266.506 C 620.842,264.983 618.937,260.692 620.704,254.820 C 621.986,250.558 627.615,243 629.505,243 C 631.416,243 636.852,250.496 638.284,255.105 C 639.051,257.575 639.083,258.250 638.529,260.105 C 637.622,263.134 636.324,264.753 633.838,265.957 C 631.620,267.031 628.380,267.255 625.895,266.506" stroke="#ACDCFD" fill="#ACDCFD" stroke-width="1" />
  <path id="56" d="M 418.750,258.915 C 416.250,257.986 414.531,256.521 413.447,254.395 C 412.533,252.604 412.474,252.039 412.934,249.430 C 413.219,247.811 414.251,244.968 415.226,243.111 C 417.036,239.667 421.692,233.500 422.483,233.500 C 423.204,233.500 427.629,238.726 429.431,241.704 C 431.666,245.398 432.452,247.734 432.476,250.750 C 432.500,253.708 431.411,255.754 428.723,257.805 C 427.173,258.986 426.305,259.246 423.555,259.349 C 421.737,259.417 419.575,259.221 418.750,258.915" stroke="#ACDCFD" fill="#ACDCFD" stroke-width="1" />
  <path id="56" d="M 367.250,254.214 C 364.933,253.009 363.599,251.544 362.719,249.238 C 362.005,247.369 361.993,246.811 362.613,244.379 C 363.973,239.037 370.756,228.996 372.500,229.742 C 373.564,230.196 376.858,234.333 379.070,237.989 C 383.366,245.095 382.573,251.157 376.973,254.014 C 374.562,255.244 369.433,255.349 367.250,254.214" stroke="#ACDCFD" fill="#ACDCFD" stroke-width="1" />
  <path id="56" d="M 187.504,447.411 C 184.137,445.671 182.869,443.464 183.099,439.750 C 183.320,436.197 184.533,433.524 188.036,428.875 C 191.464,424.327 192.060,424.364 195.979,429.375 C 199.157,433.440 201,437.408 201,440.190 C 201,442.438 199.005,446.045 197.168,447.118 C 196.339,447.603 194.330,448.127 192.705,448.286 C 190.233,448.526 189.383,448.383 187.504,447.411" stroke="#ACDCFD" fill="#ACDCFD" stroke-width="1" />
  <path id="56" d="M 773.500,293.550 C 771.039,293.037 769.930,292.348 767.832,290.025 C 765.944,287.935 765.819,287.488 765.948,283.250 C 766.080,278.899 772.029,268.502 774.836,267.716 C 776.146,267.349 778.495,269.748 782.138,275.177 C 784.920,279.324 785.688,281.734 785.385,285.376 C 784.928,290.898 779.310,294.762 773.500,293.550" stroke="#ACDCFD" fill="#ACDCFD" stroke-width="1" />
  <path id="56" d="M 236.071,267.279 C 233.325,266.390 231.630,264.841 230.394,262.091 C 229.286,259.626 229.492,257.080 231.070,253.750 C 232.565,250.593 237.666,243.780 238.679,243.584 C 239.917,243.346 242.071,245.488 245.021,249.887 C 247.643,253.797 248.493,256.089 248.497,259.258 C 248.505,265.127 242.131,269.241 236.071,267.279" stroke="#ACDCFD" fill="#ACDCFD" stroke-width="1" />
  <path id="56" d="M 812.225,592.297 C 810.169,591.401 808.112,588.857 807.710,586.712 C 807.014,583.005 807.699,579.782 809.899,576.406 C 812.847,571.880 815.109,569.793 816.648,570.179 C 818.259,570.584 821.518,574.904 823.449,579.194 C 826.147,585.186 825.258,589.710 820.962,591.855 C 818.422,593.122 814.569,593.317 812.225,592.297" stroke="#ACDCFD" fill="#ACDCFD" stroke-width="1" />
  <path id="56" d="M 390.921,302.543 C 388.495,301.755 386.493,300.293 385.113,298.303 C 383.940,296.610 383.751,295.842 383.757,292.793 C 383.762,289.658 383.981,288.841 385.658,285.692 C 387.610,282.029 391.591,276.748 393.110,275.807 C 394.236,275.109 396.709,277.450 399.815,282.156 C 403.057,287.070 404.121,289.767 404.190,293.250 C 404.261,296.877 403.148,299.072 400.178,301.159 C 397.982,302.702 393.486,303.375 390.921,302.543" stroke="#ACDCFD" fill="#ACDCFD" stroke-width="1" />
  <path id="56" d="M 815.740,371.330 C 812.056,369.659 809.864,365.076 810.761,360.921 C 811.435,357.800 815.740,350.726 818.446,348.293 C 819.400,347.435 819.645,347.409 820.829,348.043 C 822.360,348.862 826.677,354.761 828.054,357.916 C 829.316,360.806 829.309,365.236 828.040,367.317 C 826.284,370.197 823.745,371.692 820.315,371.863 C 818.468,371.954 816.649,371.743 815.740,371.330" stroke="#ACDCFD" fill="#ACDCFD" stroke-width="1" />
  <path id="56" d="M 784.265,539.359 C 783.173,538.740 781.746,537.451 781.096,536.492 C 779.450,534.071 779.735,530.266 781.886,525.933 C 783.601,522.480 787.599,517.122 788.808,516.659 C 789.761,516.293 791.860,518.280 795.038,522.558 C 797.928,526.447 799,528.801 799,531.250 C 799,533.261 797.886,536.245 796.606,537.660 C 793.939,540.609 787.932,541.436 784.265,539.359" stroke="#ACDCFD" fill="#ACDCFD" stroke-width="1" />
  <path id="56" d="M 187.250,595.806 C 186.425,595.446 184.906,594.217 183.875,593.074 C 182.208,591.228 182,590.706 182.005,588.374 C 182.011,585.226 183.386,582.071 186.692,577.610 C 189.480,573.850 191.042,572.931 192.461,574.215 C 194.181,575.771 199.579,584.386 199.999,586.244 C 201.433,592.601 193.514,598.540 187.250,595.806" stroke="#ACDCFD" fill="#ACDCFD" stroke-width="1" />
  <path id="56" d="M 816.250,478.276 C 813.672,477.329 811.154,474.582 810.713,472.232 C 810.203,469.514 811.301,465.464 813.444,462.147 C 815.823,458.466 818.412,455.500 819.245,455.500 C 820.380,455.500 826.101,462.102 827.372,464.877 C 829.131,468.719 829.312,470.899 828.100,473.640 C 826.205,477.924 820.922,479.991 816.250,478.276" stroke="#ACDCFD" fill="#ACDCFD" stroke-width="1" />
  <path id="133" d="M 488.003,780.151 C 485.667,780.043 483.541,779.741 483.278,779.478 C 482.974,779.174 494.630,779.003 515.275,779.009 C 533.136,779.014 563.106,778.750 581.874,778.423 C 600.641,778.097 616.147,777.981 616.332,778.165 C 617.157,778.991 615.311,779.240 605.850,779.576 C 594.678,779.973 494.744,780.461 488.003,780.151" stroke="#E2F2F9" fill="#E2F2F9" stroke-width="1" />
  <path id="169" d="M 226.719,580.700 C 224.188,579.802 220.907,576.432 219.822,573.615 C 218.962,571.380 218.656,565.434 219.446,566.275 C 219.690,566.536 219.985,568.136 220.100,569.830 C 220.454,575.086 223.927,579.016 229.139,580.063 C 234.785,581.197 238.960,579.365 242.428,574.234 C 244.021,571.875 244.094,571.573 243.873,568.250 C 243.728,566.076 243.142,563.537 242.323,561.545 C 240.923,558.139 234.364,547.925 232.501,546.250 C 232.501,546.250 231.390,545.250 231.390,545.250 C 231.390,545.250 229.655,547.250 229.655,547.250 C 227.024,550.284 224.174,554.783 221.895,559.500 C 220.767,561.837 219.742,563.456 219.619,563.096 C 219.252,562.015 224.367,552.298 227.578,547.976 C 229.913,544.832 230.812,543.975 231.645,544.095 C 233.208,544.322 239.087,552.335 242.582,559.003 C 247.407,568.208 245.346,576.908 237.500,580.460 C 234.812,581.676 229.786,581.788 226.719,580.700" stroke="#E0F0F6" fill="#E0F0F6" stroke-width="1" />
  <path id="56" d="M 691.818,253.768 C 689.607,252.979 687.259,250.917 686.147,248.787 C 685.168,246.912 685.601,242.746 687.077,239.838 C 689.587,234.891 693.554,230 695.056,230 C 696.077,230 699.444,233.675 701.885,237.454 C 705.518,243.078 705.569,247.931 702.034,251.466 C 699.230,254.270 695.552,255.099 691.818,253.768" stroke="#ACDCFD" fill="#ACDCFD" stroke-width="1" />
  </g><g id="clouds 2"><path id="162" d="M 0,512 C 0,512 0,0 0,0 C 0,0 512,0 512,0 C 512,0 1024,0 1024,0 C 1024,0 1024,512 1024,512 C 1024,512 1024,1024 1024,1024 C 1024,1024 512,1024 512,1024 C 512,1024 0,1024 0,1024 C 0,1024 0,512 0,512M 605.904,779.574 C 612.548,779.337 616.180,779.018 616.409,778.648 C 616.654,778.250 623.177,777.994 638.504,777.780 C 650.465,777.614 662.050,777.376 664.250,777.251 C 666.450,777.127 681.975,776.789 698.750,776.500 C 715.525,776.210 732.625,775.756 736.750,775.491 C 740.875,775.226 754.938,774.670 768,774.255 C 781.062,773.840 795.575,773.277 800.250,773.003 C 804.925,772.730 814.938,772.279 822.500,772.001 C 848.254,771.057 870.790,769.951 888.750,768.750 C 894.800,768.346 905.938,767.659 913.500,767.222 C 929.004,766.329 931.177,766.058 931.383,764.987 C 931.630,763.703 925.257,757.285 920.495,754.024 C 914.976,750.244 908.376,747.119 902,745.267 C 899.388,744.509 896.688,743.701 896,743.472 C 888.664,741.034 874.331,740.742 863.619,742.812 C 863.619,742.812 859.487,743.610 859.487,743.610 C 859.487,743.610 856.869,741.394 856.869,741.394 C 850.020,735.600 841.660,730.395 833.745,727.001 C 827.241,724.212 824.067,723.222 817.005,721.780 C 817.005,721.780 811.761,720.708 811.761,720.708 C 811.761,720.708 808.506,716.480 808.506,716.480 C 796.217,700.509 777.337,688.784 756.176,683.981 C 756.176,683.981 751.102,682.830 751.102,682.830 C 751.102,682.830 750.220,679.540 750.220,679.540 C 748.204,672.025 742.411,663.423 735.765,658.077 C 728.859,652.520 721.503,650 712.195,650 C 712.195,650 708,650 708,650 C 708,650 708,604.837 708,604.837 C 708,561.927 707.951,559.399 707.005,554.146 C 705.692,546.860 703.591,540.567 700.391,534.337 C 690.875,515.808 672.333,501.714 651.867,497.450 C 644.745,495.966 635.540,495.955 628.795,497.422 C 626.071,498.015 623.616,498.500 623.343,498.500 C 623.023,498.500 622.957,496.176 623.158,491.964 C 624.097,472.327 619.895,457.014 609.995,444 C 601.211,432.454 588.370,424.394 574.500,421.723 C 572.438,421.325 570.027,421 569.143,421 C 567.101,421 566.708,420.248 566.262,415.500 C 564.948,401.521 559.812,389.765 549.610,377.380 C 541.057,366.997 527.317,357.678 514.089,353.286 C 505.591,350.466 501.341,349.791 492.250,349.820 C 477.568,349.866 465.702,353.130 453.099,360.590 C 446.586,364.445 444.162,366.337 437.558,372.726 C 423.484,386.344 415.683,401.168 412.979,419.433 C 412.979,419.433 412.360,423.616 412.360,423.616 C 412.360,423.616 410.305,423.312 410.305,423.312 C 409.175,423.144 406.788,422.784 405,422.514 C 397.415,421.363 389.231,422.515 380.548,425.957 C 371.935,429.372 366.179,433.263 359.951,439.883 C 350.183,450.265 344.678,462.533 344.132,475.131 C 343.840,481.846 344.406,481.217 338.159,481.748 C 323.700,482.978 308.583,491.865 298.720,504.936 C 293.779,511.485 288.575,522.537 286.212,531.500 C 284.970,536.213 284.680,549.458 284.875,592.573 C 285.005,621.090 284.908,629.501 284.449,629.218 C 284.026,628.957 283.942,629.198 284.156,630.052 C 284.321,630.712 284.488,635.189 284.525,640.001 C 284.525,640.001 284.593,648.750 284.593,648.750 C 284.593,648.750 280.868,649.127 280.868,649.127 C 267.151,650.514 253.590,661.277 249.239,674.227 C 248.212,677.285 247.351,682.883 247.667,684.458 C 247.923,685.744 247.780,685.908 245.897,686.472 C 241.239,687.867 231.939,691.977 227.417,694.639 C 217,700.769 205.803,710.756 200.184,718.928 C 200.117,719.025 197.291,719.655 193.905,720.327 C 187.986,721.501 179.791,723.739 178.750,724.466 C 178.475,724.658 176.675,725.461 174.750,726.251 C 172.825,727.042 169.787,728.480 168,729.447 C 164.895,731.126 156.442,737.080 154.590,738.890 C 154.107,739.363 152.880,740.471 151.863,741.354 C 151.863,741.354 150.014,742.957 150.014,742.957 C 150.014,742.957 147.632,742.234 147.632,742.234 C 146.322,741.836 144.198,741.509 142.913,741.505 C 141.627,741.503 139.421,741.234 138.008,740.908 C 135.256,740.272 123.352,740.981 118.250,742.083 C 105.067,744.933 87.013,754.908 82.198,762 C 81.545,762.962 80.656,764.236 80.224,764.831 C 79.630,765.646 79.567,766.138 79.968,766.831 C 80.260,767.337 80.719,768.369 80.987,769.125 C 81.624,770.918 82.447,770.870 83.153,769 C 83.669,767.631 84.611,767.162 86.218,767.471 C 86.475,767.521 91.989,767.655 98.471,767.769 C 104.953,767.884 113.743,768.202 118.004,768.476 C 122.264,768.749 130.925,769.210 137.250,769.500 C 143.575,769.789 153.475,770.247 159.250,770.518 C 196.471,772.259 226.464,773.470 245.750,774.010 C 255.100,774.273 267.925,774.713 274.250,774.989 C 280.575,775.265 297,775.729 310.750,776.019 C 324.500,776.308 342.275,776.759 350.250,777.019 C 358.225,777.280 387.475,777.706 415.250,777.966 C 467.826,778.458 482.390,778.792 483.275,779.523 C 483.563,779.761 485.701,780.044 488.025,780.152 C 494.756,780.462 594.700,779.972 605.904,779.574M 87.750,623.743 C 87.750,621.417 87.666,621.250 86.500,621.250 C 85.459,621.250 85.224,621.518 85.095,622.852 C 84.901,624.855 85.799,626.612 86.909,626.399 C 87.562,626.273 87.750,625.682 87.750,623.743M 193.738,595.942 C 197.845,594.802 200.871,590.114 199.999,586.244 C 199.579,584.386 194.181,575.771 192.461,574.215 C 191.042,572.931 189.480,573.850 186.692,577.610 C 183.386,582.071 182.011,585.226 182.005,588.374 C 182,590.706 182.208,591.228 183.875,593.074 C 186.824,596.341 189.499,597.120 193.738,595.942M 820.962,591.855 C 825.258,589.710 826.147,585.186 823.449,579.194 C 821.518,574.904 818.259,570.584 816.648,570.179 C 815.109,569.793 812.847,571.880 809.899,576.406 C 807.699,579.782 807.014,583.005 807.710,586.712 C 808.112,588.857 810.169,591.401 812.225,592.297 C 814.569,593.317 818.422,593.122 820.962,591.855M 759.790,587.307 C 765.101,584.834 767.938,579.064 766.928,572.790 C 766.509,570.188 764.499,565.409 761.691,560.336 C 760.648,558.452 754.535,552 753.793,552 C 752.198,552 745.214,561.211 742.798,566.500 C 740.755,570.973 739.851,575.691 740.476,578.608 C 741.265,582.285 743.536,585.244 746.904,586.982 C 750.734,588.960 755.959,589.091 759.790,587.307M 68.250,584.243 C 68.250,581.917 68.166,581.750 67,581.750 C 65.855,581.750 65.760,581.918 65.872,583.750 C 66.038,586.464 66.343,587.104 67.374,586.905 C 68.069,586.771 68.250,586.221 68.250,584.243M 237.500,580.460 C 245.346,576.908 247.407,568.208 242.582,559.003 C 239.099,552.357 233.208,544.322 231.656,544.096 C 230.193,543.885 225.703,549.931 222.190,556.845 C 219.996,561.162 219.543,562.471 219.788,563.777 C 219.965,564.722 219.865,565.524 219.545,565.722 C 218.719,566.232 218.893,571.203 219.822,573.615 C 220.907,576.432 224.188,579.802 226.719,580.700 C 229.786,581.788 234.812,581.676 237.500,580.460M 74,578.971 C 74,577.847 73.364,577.710 72.573,578.662 C 72.173,579.144 72.178,579.478 72.592,579.892 C 73.332,580.632 74,580.194 74,578.971M 897.252,549.999 C 899.176,549.268 898.819,547.306 896.725,547.101 C 894.744,546.907 893.021,548.571 893.992,549.740 C 894.730,550.629 895.446,550.686 897.252,549.999M 793.895,539.553 C 796.187,538.384 797.239,537.247 798.231,534.872 C 799.842,531.015 799.050,527.958 795.038,522.558 C 791.860,518.280 789.761,516.293 788.808,516.659 C 787.599,517.122 783.601,522.480 781.886,525.933 C 779.735,530.266 779.450,534.071 781.096,536.492 C 783.668,540.279 789.664,541.712 793.895,539.553M 739.484,518.168 C 742.825,516.942 744.598,515.441 746.261,512.435 C 747.618,509.981 747.745,509.341 747.736,505 C 747.727,500.550 747.607,499.997 745.833,496.250 C 744.792,494.050 743.727,491.913 743.468,491.500 C 743.210,491.087 742.775,490.234 742.503,489.603 C 741.817,488.014 736.558,481.491 735.696,481.160 C 734.798,480.815 731.803,483.084 730.358,485.201 C 726.024,491.553 724.907,493.471 723.409,497.125 C 721.696,501.303 721.583,502.421 721.975,511.330 C 721.989,511.649 722.890,513.035 723.977,514.412 C 725.450,516.274 726.631,517.173 728.602,517.931 C 731.875,519.188 736.434,519.288 739.484,518.168M 242.745,517.696 C 246.621,516.722 249.505,514.443 251.270,510.961 C 253.048,507.451 253.002,502.082 251.151,497.262 C 248.594,490.601 241.873,481 239.767,481 C 237.494,481 230.946,489.714 228.248,496.330 C 226.433,500.780 225.998,506.728 227.218,510.403 C 228.274,513.582 231.518,516.708 234.579,517.495 C 235.773,517.803 236.975,518.136 237.250,518.237 C 238.272,518.612 239.627,518.479 242.745,517.696M 284,483.961 C 288.816,481.783 292.115,476.713 292.108,471.500 C 292.104,468.567 289.054,458.683 287.865,457.750 C 287.514,457.475 286.452,456.012 285.505,454.500 C 282.984,450.476 279.885,447 278.817,447 C 277.108,447 273.555,451.721 268.211,461.094 C 264.692,467.265 264.218,473.003 266.805,478.110 C 268.084,480.632 271.147,483.227 274.158,484.337 C 276.747,485.291 281.454,485.111 284,483.961M 825.032,477.288 C 830.726,473.520 829.928,466.237 823.013,458.844 C 821.293,457.005 819.597,455.500 819.245,455.500 C 817.511,455.500 811.817,463.904 810.962,467.726 C 810.181,471.216 810.698,473.688 812.655,475.811 C 815.798,479.223 821.145,479.861 825.032,477.288M 781.066,467.716 C 785.346,465.502 788.030,462.077 789.050,457.526 C 789.581,455.158 789.141,452.449 787.696,449.175 C 787.313,448.308 787,447.315 787,446.968 C 787,446.621 786.269,445.202 785.375,443.814 C 784.481,442.426 783.525,440.894 783.250,440.409 C 780.952,436.363 776.721,431.500 775.500,431.500 C 773.016,431.500 766.139,441.786 763.630,449.250 C 762.503,452.607 762.418,458.640 763.463,461.250 C 764.654,464.224 768.797,467.587 772.379,468.487 C 774.934,469.129 779.038,468.764 781.066,467.716M 699.500,463.959 C 707.906,460.154 709.381,450.298 703.211,439.173 C 701.679,436.411 700.361,434.604 696.351,429.767 C 695.255,428.445 694.986,428.346 693.869,428.855 C 691.357,430 685.336,439.050 683.237,444.834 C 681.641,449.235 681.515,455.101 682.957,457.895 C 684.282,460.461 687.374,463.328 689.755,464.200 C 692.677,465.269 696.834,465.166 699.500,463.959M 197.168,447.118 C 199.005,446.045 201,442.438 201,440.190 C 201,437.408 199.157,433.440 195.979,429.375 C 192.060,424.364 191.464,424.327 188.036,428.875 C 184.533,433.524 183.320,436.197 183.099,439.750 C 182.869,443.464 184.137,445.671 187.504,447.411 C 189.383,448.383 190.233,448.526 192.705,448.286 C 194.330,448.127 196.339,447.603 197.168,447.118M 635.817,444.349 C 640.361,441.444 642.472,437.649 642.489,432.359 C 642.506,427.026 640.532,422.036 635.816,415.500 C 632.267,410.582 629.925,408 629.011,408 C 626.919,408 618.263,420.687 616.985,425.625 C 616.718,426.656 616.269,428.391 615.986,429.480 C 615.392,431.769 616.006,436.607 617.174,438.833 C 618.393,441.155 621.879,444.190 624.395,445.119 C 627.797,446.375 633.222,446.009 635.817,444.349M 245.892,438.304 C 248.761,436.849 249.533,436.024 251.271,432.558 C 253.968,427.178 252.303,420.036 246.258,411.053 C 243.533,407.001 239.863,403 238.873,403 C 236.971,403 230.286,412.348 227.430,419 C 226.479,421.216 226.250,422.623 226.255,426.251 C 226.258,430.213 226.417,431.021 227.582,433.001 C 230.339,437.690 233.475,439.366 239.642,439.448 C 242.822,439.490 243.964,439.281 245.892,438.304M 338.274,435.043 C 341.144,433.397 341.351,433.178 343.257,429.750 C 345.899,424.999 344.873,416.784 340.858,410.517 C 340.235,409.545 339.281,407.887 338.738,406.832 C 337.231,403.908 332.591,398.500 331.587,398.500 C 329.192,398.500 320.940,410.229 318.748,416.750 C 316.064,424.732 318.623,432.007 325.250,435.231 C 327.243,436.201 328.561,436.452 331.750,436.469 C 335.270,436.488 336.053,436.317 338.274,435.043M 743.917,413.722 C 747.966,412.813 751.998,407.875 752.878,402.750 C 753.682,398.068 751.746,391.630 747.797,385.853 C 747.083,384.810 746.500,383.714 746.500,383.419 C 746.500,383.124 745.881,382.151 745.125,381.257 C 744.369,380.363 743.121,378.815 742.354,377.816 C 740.490,375.392 739.121,375.442 736.793,378.017 C 732.777,382.464 727.561,392.267 726.462,397.435 C 725.501,401.954 726.779,407.089 729.534,409.781 C 730.514,410.740 732.539,412.171 734.034,412.962 C 736.365,414.195 737.175,414.370 739.750,414.192 C 741.400,414.077 743.275,413.866 743.917,413.722M 599.830,393.834 C 604.971,392.756 608.405,389.402 609.753,384.143 C 610.834,379.921 610.111,375.620 607.422,370.279 C 604.213,363.906 598.654,356.500 597.080,356.500 C 594.645,356.500 586.931,367.455 584.679,374.109 C 583.284,378.233 583.091,383.897 584.249,386.671 C 586.043,390.965 590.340,393.740 596.250,394.421 C 596.525,394.453 598.136,394.188 599.830,393.834M 397.257,390.715 C 401.539,388.925 403.856,386.055 404.993,381.127 C 405.442,379.182 405.457,378.096 405.050,376.927 C 404.748,376.060 404.500,374.786 404.500,374.096 C 404.500,372.106 400.290,364.156 396.693,359.354 C 392.868,354.247 391.545,353.173 390.058,353.969 C 388.595,354.752 382.913,363.507 380.466,368.750 C 378.483,372.996 378.361,373.519 378.310,378.016 C 378.257,382.596 378.320,382.882 379.904,385.351 C 381.715,388.173 382.791,389.026 386.363,390.476 C 389.351,391.690 394.647,391.805 397.257,390.715M 301.711,389.798 C 304.085,388.807 307.521,385.565 308.387,383.500 C 308.791,382.536 309.187,379.729 309.269,377.250 C 309.459,371.550 308.352,368.529 303.223,360.750 C 299.070,354.452 297.500,352.772 296.168,353.200 C 294.046,353.882 287.164,364.183 284.969,369.962 C 284.413,371.422 283.830,374.334 283.673,376.433 C 283.418,379.807 283.533,380.582 284.659,383.112 C 285.988,386.097 288.763,388.585 292.158,389.837 C 294.384,390.658 299.706,390.636 301.711,389.798M 695.925,389.139 C 703.982,385.063 705.438,375.998 699.711,365.579 C 696,358.826 691.968,354 690.039,354 C 689.585,354 688.186,355.069 686.931,356.375 C 676.574,367.155 673.822,380.437 680.606,386.892 C 684.500,390.596 691.125,391.568 695.925,389.139M 367.971,385.785 C 368.298,385.392 368.494,384.211 368.408,383.160 C 368.283,381.646 368.046,381.250 367.264,381.250 C 366.489,381.250 366.197,381.721 365.903,383.445 C 365.697,384.653 365.647,385.834 365.793,386.070 C 366.200,386.728 367.310,386.582 367.971,385.785M 825.232,370.297 C 826.251,369.520 827.515,368.179 828.040,367.317 C 829.309,365.236 829.316,360.806 828.054,357.916 C 826.677,354.761 822.360,348.862 820.829,348.043 C 819.645,347.409 819.400,347.435 818.446,348.293 C 817.033,349.563 813.374,354.747 812.122,357.250 C 809.886,361.721 810.077,365.914 812.649,368.844 C 814.828,371.325 816.655,372.045 820.315,371.863 C 822.765,371.740 823.751,371.427 825.232,370.297M 194.490,370.375 C 197.443,368.866 198.616,367.126 198.887,363.852 C 199.070,361.655 198.863,360.659 197.763,358.411 C 196.042,354.897 190.537,348.298 189.160,348.098 C 187.144,347.805 180.048,359.340 180.012,362.967 C 179.995,364.719 181.911,368.419 183.311,369.337 C 186.873,371.670 191.174,372.070 194.490,370.375M 781.017,366.135 C 785.758,364.030 788.812,358.339 788.341,352.492 C 788,348.269 786.624,344.862 783.376,340.199 C 781.932,338.124 780.413,335.921 780,335.303 C 778.214,332.626 775.580,330 774.678,330 C 772.818,330 768.231,335.788 764.785,342.480 C 763.386,345.198 762.692,347.368 762.227,350.481 C 761.071,358.218 762.683,361.839 769.202,366.155 C 770.944,367.308 771.564,367.431 774.952,367.295 C 777.385,367.197 779.565,366.779 781.017,366.135M 247.782,360.555 C 254.651,357.435 257.212,350.134 254.242,342.137 C 253.550,340.274 252.389,337.625 251.662,336.250 C 249.411,331.993 244.376,324.922 243.222,324.396 C 241.552,323.635 239.929,324.989 236.588,329.930 C 230.773,338.528 229.173,342.029 228.675,347.250 C 228.433,349.799 228.590,350.701 229.722,353.250 C 232.355,359.177 235.804,361.345 242.750,361.438 C 244.675,361.464 246.478,361.147 247.782,360.555M 560.028,351.240 C 563.140,350.142 565.082,348.476 566.687,345.528 C 567.987,343.139 568.082,342.596 567.911,338.593 C 567.744,334.684 567.516,333.836 565.641,330.104 C 562.549,323.951 556.933,316.500 555.386,316.500 C 553.834,316.500 546.764,327.173 544.953,332.250 C 543.612,336.010 543.450,342.395 544.630,345 C 547.059,350.365 554.250,353.279 560.028,351.240M 359.096,348.912 C 361.858,348.085 365.251,344.936 366.277,342.249 C 367.548,338.920 367.099,333.206 365.233,329 C 362.257,322.288 355.927,313.486 354.096,313.512 C 352.438,313.537 345.214,324.445 343.082,330.144 C 341.526,334.306 341.581,339.707 343.214,342.930 C 345.901,348.233 352.752,350.813 359.096,348.912M 637.351,346.077 C 639.966,344.742 643.163,341.099 643.912,338.596 C 645.128,334.538 644.386,329.810 641.656,324.218 C 639.288,319.369 633.847,311.932 632.205,311.302 C 631.239,310.932 629.389,312.979 625.943,318.233 C 622.140,324.031 620.103,328.957 619.702,333.320 C 619.284,337.868 620.056,340.541 622.580,343.279 C 626.349,347.368 632.525,348.538 637.351,346.077M 729.269,339.765 C 730.460,339.067 731.872,337.878 732.408,337.123 C 733.559,335.499 735,331.440 735,329.820 C 735,325.932 729.626,315.692 725.532,311.777 C 725.532,311.777 723.992,310.305 723.992,310.305 C 723.992,310.305 721.963,312.277 721.963,312.277 C 719.069,315.092 714.674,321.758 713.501,325.113 C 712.339,328.435 712.202,332.836 713.188,335.141 C 715.547,340.652 723.736,343.007 729.269,339.765M 440.988,321.503 C 443.719,320.721 447.404,317.955 448.989,315.500 C 452.456,310.130 452.034,303.685 447.697,295.750 C 444.551,289.994 439.505,284 437.805,284 C 435.642,284 428.456,295.111 425.998,302.254 C 424.632,306.226 424.651,311.464 426.044,314.341 C 427.358,317.055 430.594,319.858 433.228,320.562 C 434.340,320.860 435.700,321.289 436.250,321.517 C 437.630,322.090 438.956,322.086 440.988,321.503M 275.755,319.567 C 279.286,317.963 281.988,313.897 281.997,310.170 C 282.002,307.954 280.093,303.082 277.998,299.967 C 274.305,294.476 271.982,291.931 270.815,292.099 C 269.504,292.288 265.091,298.070 262.776,302.634 C 259.661,308.772 259.780,313.070 263.169,316.777 C 266.456,320.373 271.512,321.495 275.755,319.567M 505.131,307.188 C 509.382,304.194 510.570,299.113 508.315,293.564 C 507.199,290.817 503.465,284.957 500.855,281.856 C 499.291,279.998 498.562,280.354 495.236,284.605 C 489.618,291.786 487.421,298.533 489.193,303.171 C 490.801,307.381 494.065,309.142 499.670,308.822 C 502.440,308.664 503.476,308.354 505.131,307.188M 159.471,306.285 C 159.798,305.892 159.994,304.711 159.907,303.660 C 159.782,302.136 159.548,301.750 158.750,301.750 C 157.951,301.750 157.718,302.136 157.591,303.678 C 157.339,306.748 158.152,307.875 159.471,306.285M 683.178,305.312 C 685.340,304.409 688.341,301.743 689.382,299.801 C 690.692,297.356 690.527,290.038 689.079,286.397 C 687.106,281.436 679.343,270.500 677.795,270.500 C 676.470,270.500 670.661,278.683 667.931,284.399 C 663.766,293.114 665.626,301.231 672.580,304.696 C 675.590,306.196 680.394,306.476 683.178,305.312M 593.769,304.561 C 596.313,303.406 599.643,299.664 600.412,297.096 C 601.943,291.987 600.541,286.084 596.202,279.368 C 593.075,274.529 589.486,270 588.778,270 C 587.436,270 581.048,277.960 578.745,282.500 C 573.803,292.241 575.914,301.945 583.562,304.648 C 586.620,305.728 591.287,305.688 593.769,304.561M 400.178,301.159 C 403.148,299.072 404.261,296.877 404.190,293.250 C 404.121,289.767 403.057,287.070 399.815,282.156 C 396.709,277.450 394.236,275.109 393.110,275.807 C 391.591,276.748 387.610,282.029 385.658,285.692 C 383.981,288.841 383.762,289.658 383.757,292.793 C 383.751,295.842 383.940,296.610 385.113,298.303 C 387.445,301.668 390.632,303.081 395.202,302.777 C 397.432,302.628 398.651,302.233 400.178,301.159M 196.580,294.202 C 200.190,292.354 202.137,287.722 201.030,283.611 C 199.893,279.389 192.960,270.524 191.296,271.163 C 190.228,271.573 185.824,277.670 184.201,280.985 C 182.510,284.438 182.354,288.052 183.791,290.512 C 184.921,292.447 188.109,294.832 190,295.156 C 191.792,295.464 195.030,294.994 196.580,294.202M 319.750,293.945 C 322.683,293.140 325.729,290.418 327.216,287.275 C 329.050,283.399 328.978,279.466 326.975,274.267 C 324.187,267.026 317.214,257 314.967,257 C 312.770,257 305.103,268.709 303.204,274.966 C 302.264,278.062 302.322,283.298 303.328,286.252 C 304.356,289.270 307.476,292.460 310.502,293.588 C 313.139,294.571 316.935,294.718 319.750,293.945M 780.468,292.591 C 783.231,291.238 785.130,288.450 785.385,285.376 C 785.688,281.734 784.920,279.324 782.138,275.177 C 778.495,269.748 776.146,267.349 774.836,267.716 C 773.299,268.146 770.342,272.059 768.014,276.746 C 766.111,280.573 765.693,282.613 765.936,286.873 C 766.005,288.084 769.003,291.693 770.707,292.619 C 773.454,294.111 777.390,294.099 780.468,292.591M 244.698,266.123 C 249.702,262.597 249.812,257.032 245.021,249.887 C 242.071,245.488 239.917,243.346 238.679,243.584 C 237.666,243.780 232.565,250.593 231.070,253.750 C 228.905,258.318 229.464,262.505 232.629,265.412 C 235.684,268.219 241.258,268.548 244.698,266.123M 633.838,265.957 C 636.324,264.753 637.622,263.134 638.529,260.105 C 639.083,258.250 639.051,257.575 638.284,255.105 C 636.852,250.496 631.416,243 629.505,243 C 628.439,243 625.341,246.307 623.074,249.865 C 620.157,254.446 619.216,259.534 620.742,262.486 C 622.814,266.491 629.225,268.190 633.838,265.957M 537.805,263.690 C 541.726,261.829 543.553,257.640 542.449,253.039 C 541.413,248.717 534.971,239.500 532.987,239.500 C 531.943,239.500 528.358,243.544 526.047,247.328 C 525.149,248.797 524.122,251.518 523.659,253.653 C 522.849,257.385 522.851,257.410 524.048,259.806 C 525.668,263.048 528.399,264.500 532.878,264.500 C 534.811,264.500 536.781,264.176 537.805,263.690M 428.723,257.805 C 433.582,254.098 433.809,248.942 429.431,241.704 C 427.629,238.726 423.204,233.500 422.483,233.500 C 421.692,233.500 417.036,239.667 415.226,243.111 C 414.251,244.968 413.219,247.811 412.934,249.430 C 412.474,252.039 412.533,252.604 413.447,254.395 C 415.267,257.963 418.482,259.539 423.555,259.349 C 426.305,259.246 427.173,258.986 428.723,257.805M 376.973,254.014 C 382.573,251.157 383.366,245.095 379.070,237.989 C 376.858,234.333 373.564,230.196 372.500,229.742 C 370.756,228.996 363.973,239.037 362.613,244.379 C 361.993,246.811 362.005,247.369 362.719,249.238 C 364.204,253.125 367.178,254.993 371.895,254.997 C 374.043,254.999 375.652,254.688 376.973,254.014M 482.378,253.337 C 483.543,252.172 482.656,251.500 479.955,251.500 C 477.360,251.500 476.572,252.163 477.205,253.815 C 477.450,254.452 477.964,254.570 479.578,254.353 C 480.711,254.201 481.971,253.744 482.378,253.337M 698.180,253.887 C 702.895,252.475 705.583,247.552 704.298,242.681 C 703.193,238.495 697.002,230 695.056,230 C 693.554,230 689.587,234.891 687.077,239.838 C 685.601,242.746 685.168,246.912 686.147,248.787 C 687.259,250.917 689.607,252.979 691.818,253.768 C 694.248,254.633 695.603,254.659 698.180,253.887M 481.832,247.716 C 482.315,246.458 481.188,245.715 480.564,246.881 C 480.043,247.855 480.255,248.500 481.099,248.500 C 481.337,248.500 481.666,248.148 481.832,247.716M 856.433,241.221 C 856.534,240.701 856.965,240.021 857.389,239.710 C 858.436,238.945 857.809,237.500 856.430,237.500 C 855.128,237.500 853.500,238.840 853.500,239.913 C 853.500,240.901 855.024,242.575 855.713,242.345 C 856.009,242.248 856.332,241.742 856.433,241.221M 577.697,215.875 C 578.450,214.673 577.500,213.250 575.946,213.250 C 574.702,213.250 574.102,214.741 574.708,216.321 C 575.082,217.294 576.986,217.010 577.697,215.875M 362.250,214.500 C 362.250,213.375 362.060,213.256 360.340,213.310 C 358.166,213.379 357.225,214.062 357.679,215.245 C 357.913,215.857 358.519,216.020 360.120,215.904 C 362.017,215.767 362.250,215.613 362.250,214.500M 28.427,105.709 C 28.523,105.181 28.945,104.365 29.363,103.894 C 30.267,102.873 29.875,101.500 28.680,101.500 C 27.363,101.500 26,103.013 26,104.478 C 26,106.792 28.037,107.825 28.427,105.709M 488.291,88.228 C 489.105,86.281 488.899,85.500 487.570,85.500 C 486.320,85.500 485.500,86.497 485.500,88.016 C 485.500,90.624 487.235,90.756 488.291,88.228M 494.253,88.996 C 494.661,88.336 494.070,86.500 493.450,86.500 C 492.788,86.500 492.331,87.838 492.681,88.750 C 493.012,89.611 493.796,89.734 494.253,88.996M 849.029,72.916 C 851.097,71.254 851.509,70.164 850.249,69.680 C 848.177,68.885 844.938,71.814 845.698,73.795 C 846.106,74.858 846.861,74.659 849.029,72.916" stroke="#F1F4F6" fill="#F1F4F6" stroke-width="1" />
  <path id="169" d="M 746.904,586.982 C 743.536,585.244 741.265,582.285 740.476,578.608 C 739.851,575.691 740.755,570.973 742.798,566.500 C 745.214,561.211 752.198,552 753.793,552 C 754.535,552 760.648,558.452 761.691,560.336 C 764.499,565.409 766.509,570.188 766.928,572.790 C 767.938,579.064 765.101,584.834 759.790,587.307 C 755.959,589.091 750.734,588.960 746.904,586.982M 758.174,586.698 C 764.334,584.600 767.658,576.635 765.136,570.016 C 763.092,564.649 760.149,559.812 756.587,555.965 C 753.644,552.787 753.484,552.814 750,557.120 C 744.629,563.759 741.307,571.088 741.399,576.097 C 741.551,584.388 749.750,589.569 758.174,586.698" stroke="#E0F0F6" fill="#E0F0F6" stroke-width="1" />
  <path id="133" d="M 492.681,88.750 C 492.331,87.838 492.788,86.500 493.450,86.500 C 494.070,86.500 494.661,88.336 494.253,88.996 C 493.796,89.734 493.012,89.611 492.681,88.750" stroke="#E2F2F9" fill="#E2F2F9" stroke-width="1" />
  <path id="133" d="M 157.701,306.303 C 157.554,305.919 157.505,304.738 157.591,303.678 C 157.718,302.136 157.951,301.750 158.750,301.750 C 159.548,301.750 159.782,302.136 159.907,303.660 C 160.117,306.204 158.436,308.217 157.701,306.303" stroke="#E2F2F9" fill="#E2F2F9" stroke-width="1" />
  <path id="133" d="M 480.351,248.185 C 480.178,248.011 480.273,247.424 480.564,246.881 C 481.188,245.715 482.315,246.458 481.832,247.716 C 481.519,248.531 480.895,248.728 480.351,248.185" stroke="#E2F2F9" fill="#E2F2F9" stroke-width="1" />
  <path id="133" d="M 357.679,215.245 C 357.225,214.062 358.166,213.379 360.340,213.310 C 362.060,213.256 362.250,213.375 362.250,214.500 C 362.250,215.613 362.017,215.767 360.120,215.904 C 358.519,216.020 357.913,215.857 357.679,215.245" stroke="#E2F2F9" fill="#E2F2F9" stroke-width="1" />
  <path id="133" d="M 85.504,625.507 C 85.194,624.928 85.010,623.733 85.095,622.852 C 85.224,621.518 85.459,621.250 86.500,621.250 C 87.666,621.250 87.750,621.417 87.750,623.743 C 87.750,625.682 87.562,626.273 86.909,626.399 C 86.445,626.487 85.814,626.087 85.504,625.507" stroke="#E2F2F9" fill="#E2F2F9" stroke-width="1" />
  <path id="133" d="M 72.592,579.892 C 72.178,579.478 72.173,579.144 72.573,578.662 C 73.364,577.710 74,577.847 74,578.971 C 74,580.194 73.332,580.632 72.592,579.892" stroke="#E2F2F9" fill="#E2F2F9" stroke-width="1" />
  <path id="133" d="M 893.992,549.740 C 893.021,548.571 894.744,546.907 896.725,547.101 C 898.819,547.306 899.176,549.268 897.252,549.999 C 895.446,550.686 894.730,550.629 893.992,549.740" stroke="#E2F2F9" fill="#E2F2F9" stroke-width="1" />
  <path id="133" d="M 574.708,216.321 C 574.102,214.741 574.702,213.250 575.946,213.250 C 577.500,213.250 578.450,214.673 577.697,215.875 C 576.986,217.010 575.082,217.294 574.708,216.321" stroke="#E2F2F9" fill="#E2F2F9" stroke-width="1" />
  <path id="133" d="M 365.793,386.070 C 365.647,385.834 365.697,384.653 365.903,383.445 C 366.197,381.721 366.489,381.250 367.264,381.250 C 368.046,381.250 368.283,381.646 368.408,383.160 C 368.494,384.211 368.298,385.392 367.971,385.785 C 367.310,386.582 366.200,386.728 365.793,386.070" stroke="#E2F2F9" fill="#E2F2F9" stroke-width="1" />
  <path id="133" d="M 26.607,106.406 C 25.113,104.912 26.555,101.500 28.680,101.500 C 29.875,101.500 30.267,102.873 29.363,103.894 C 28.945,104.365 28.523,105.181 28.427,105.709 C 28.207,106.899 27.407,107.206 26.607,106.406" stroke="#E2F2F9" fill="#E2F2F9" stroke-width="1" />
  <path id="133" d="M 854.338,241.598 C 853.878,241.089 853.500,240.330 853.500,239.913 C 853.500,238.840 855.128,237.500 856.430,237.500 C 857.809,237.500 858.436,238.945 857.389,239.710 C 856.965,240.021 856.534,240.701 856.433,241.221 C 856.178,242.540 855.329,242.692 854.338,241.598" stroke="#E2F2F9" fill="#E2F2F9" stroke-width="1" />
  <path id="133" d="M 485.834,89.666 C 485.281,89.114 485.459,86.742 486.100,86.100 C 486.819,85.381 488.325,85.311 488.736,85.978 C 488.899,86.241 488.699,87.254 488.291,88.228 C 487.603,89.877 486.620,90.453 485.834,89.666" stroke="#E2F2F9" fill="#E2F2F9" stroke-width="1" />
  <path id="133" d="M 477.205,253.815 C 476.572,252.163 477.360,251.500 479.955,251.500 C 481.322,251.500 482.593,251.746 482.779,252.048 C 483.332,252.942 481.784,254.057 479.578,254.353 C 477.964,254.570 477.450,254.452 477.205,253.815" stroke="#E2F2F9" fill="#E2F2F9" stroke-width="1" />
  <path id="133" d="M 66.246,586.412 C 66.108,586.048 65.939,584.850 65.872,583.750 C 65.760,581.918 65.855,581.750 67,581.750 C 68.166,581.750 68.250,581.917 68.250,584.243 C 68.250,586.221 68.069,586.771 67.374,586.905 C 66.891,586.998 66.383,586.776 66.246,586.412" stroke="#E2F2F9" fill="#E2F2F9" stroke-width="1" />
  <path id="133" d="M 845.698,73.795 C 844.938,71.814 848.177,68.885 850.249,69.680 C 851.509,70.164 851.097,71.254 849.029,72.916 C 846.861,74.659 846.106,74.858 845.698,73.795" stroke="#E2F2F9" fill="#E2F2F9" stroke-width="1" />
</g><g id="clouds 1"><path id="59" d="M 228.197,579.932 C 225.591,579.346 222.390,576.620 221.046,573.845 C 220.289,572.281 219.983,570.605 219.928,567.721 C 219.857,564.021 219.993,563.457 221.900,559.500 C 224.171,554.788 227.019,550.290 229.655,547.250 C 229.655,547.250 231.390,545.250 231.390,545.250 C 231.390,545.250 232.501,546.250 232.501,546.250 C 234.368,547.929 240.925,558.144 242.319,561.545 C 243.083,563.408 243.737,566.151 243.881,568.095 C 244.101,571.057 243.980,571.697 242.819,573.678 C 242.097,574.909 240.564,576.723 239.411,577.710 C 236.287,580.384 233.055,581.024 228.197,579.932" stroke="#63BCFD" fill="#63BCFD" stroke-width="1" />
  </g><g id="rain clouds"><path id="59" d="M 349.877,348.741 C 346.974,347.675 344.546,345.558 343.214,342.930 C 341.581,339.707 341.526,334.306 343.082,330.144 C 345.214,324.445 352.438,313.537 354.096,313.512 C 355.927,313.486 362.257,322.288 365.233,329 C 367.099,333.206 367.548,338.920 366.277,342.249 C 365.251,344.936 361.858,348.085 359.096,348.912 C 356.524,349.683 352.223,349.603 349.877,348.741" stroke="#63BCFD" fill="#63BCFD" stroke-width="1" />
  <path id="59" d="M 233.630,437.271 C 231.672,436.359 230.629,435.449 229.499,433.668 C 225.710,427.694 226.241,422.294 231.483,413.470 C 233.904,409.394 237.831,404.500 238.679,404.500 C 240.414,404.500 246.561,413.018 249.339,419.269 C 252.133,425.560 251.971,430.337 248.820,434.628 C 246.050,438.399 238.773,439.665 233.630,437.271" stroke="#63BCFD" fill="#63BCFD" stroke-width="1" />
  <path id="59" d="M 592.985,392.758 C 587.937,391.144 584.497,386.401 584.503,381.062 C 584.506,377.681 585.072,375.503 587.098,371.086 C 589.538,365.764 595.292,358 596.797,358 C 597.557,358 599.869,360.625 602.430,364.397 C 608.692,373.619 610.510,380.299 608.174,385.505 C 605.564,391.320 598.716,394.591 592.985,392.758" stroke="#63BCFD" fill="#63BCFD" stroke-width="1" />
  <path id="59" d="M 325.453,433.875 C 322.905,432.582 321.943,431.747 320.750,429.787 C 319.342,427.476 319.251,427.013 319.261,422.287 C 319.271,417.712 319.413,416.952 320.810,414 C 321.656,412.212 323.721,408.950 325.399,406.750 C 329.775,401.012 330.697,399.998 331.519,400.022 C 333.250,400.072 340.855,412.106 342.564,417.500 C 344.425,423.373 343.769,427.950 340.541,431.627 C 336.820,435.865 331.065,436.723 325.453,433.875" stroke="#63BCFD" fill="#63BCFD" stroke-width="1" />
  <path id="59" d="M 689.755,464.200 C 687.374,463.328 684.282,460.461 682.957,457.895 C 681.515,455.101 681.641,449.235 683.237,444.834 C 685.336,439.050 691.357,430 693.869,428.855 C 695.239,428.231 694.909,427.950 699.543,433.673 C 707.751,443.810 709.324,455.855 703.188,461.596 C 699.812,464.755 694.229,465.837 689.755,464.200" stroke="#63BCFD" fill="#63BCFD" stroke-width="1" />
  <path id="59" d="M 236.036,516.678 C 229.876,515.082 227.134,510.755 227.637,503.423 C 227.949,498.863 229.395,495.361 233.517,489.178 C 236.702,484.401 238.415,482.500 239.534,482.500 C 240.302,482.500 242.773,485.389 245.948,490 C 246.612,490.962 248.029,493.568 249.099,495.791 C 253.370,504.664 251.733,512.427 244.911,515.648 C 241.429,517.292 239.343,517.534 236.036,516.678" stroke="#63BCFD" fill="#63BCFD" stroke-width="1" />
  <path id="59" d="M 627.173,346.488 C 623.943,345.207 620.777,341.878 619.975,338.921 C 618.534,333.603 620.631,326.333 625.943,318.233 C 629.389,312.979 631.239,310.932 632.205,311.302 C 633.847,311.932 639.288,319.369 641.656,324.218 C 645.542,332.176 645.443,338.151 641.351,342.800 C 637.580,347.086 632.206,348.483 627.173,346.488" stroke="#63BCFD" fill="#63BCFD" stroke-width="1" />
  <path id="59" d="M 274,483.164 C 268.047,480.597 264.863,474.151 266.497,467.973 C 267.990,462.327 276.658,448.500 278.704,448.500 C 281.234,448.500 289.483,462.627 290.481,468.670 C 291.156,472.765 290.397,476.112 288.059,479.339 C 285.135,483.377 278.610,485.152 274,483.164" stroke="#63BCFD" fill="#63BCFD" stroke-width="1" />
  <path id="59" d="M 583.562,304.648 C 575.914,301.945 573.803,292.241 578.745,282.500 C 581.048,277.960 587.436,270 588.778,270 C 589.486,270 593.075,274.529 596.202,279.368 C 600.541,286.084 601.943,291.987 600.412,297.096 C 599.643,299.664 596.313,303.406 593.769,304.561 C 591.287,305.688 586.620,305.728 583.562,304.648" stroke="#63BCFD" fill="#63BCFD" stroke-width="1" />
  <path id="59" d="M 291.726,388.353 C 286.212,385.349 284.810,383.026 284.877,377 C 284.926,372.523 285.955,369.500 289.445,363.584 C 292.504,358.399 295.514,354.540 296.500,354.541 C 297.381,354.543 299.897,357.752 303.132,363 C 307.889,370.715 309.616,376.263 308.502,380.242 C 306.458,387.545 297.867,391.697 291.726,388.353" stroke="#63BCFD" fill="#63BCFD" stroke-width="1" />
  <path id="59" d="M 385.607,388.974 C 383.172,387.758 382.228,386.923 380.939,384.849 C 379.464,382.476 379.325,381.901 379.339,378.250 C 379.361,372.301 381.569,367.022 387.315,359.175 C 388.755,357.209 390.204,355.433 390.534,355.228 C 391.964,354.345 398.515,363.118 401.788,370.298 C 403.790,374.692 404.491,379.745 403.512,382.715 C 402.021,387.231 397.080,390.486 391.705,390.495 C 389.304,390.499 388.014,390.177 385.607,388.974" stroke="#63BCFD" fill="#63BCFD" stroke-width="1" />
  <path id="59" d="M 624.250,443.786 C 619.544,441.611 617,437.639 617,432.473 C 617,426.633 618.838,422.207 624.619,414.124 C 628.805,408.271 628.792,408.274 632.317,412.764 C 642.227,425.391 644.047,434.920 637.747,441.219 C 633.980,444.987 628.926,445.949 624.250,443.786" stroke="#63BCFD" fill="#63BCFD" stroke-width="1" />
  <path id="59" d="M 310.087,292.175 C 301.769,288.152 301.341,276.783 309.074,265.291 C 311.417,261.808 314.437,258.500 315.272,258.500 C 316.255,258.500 321.834,266.481 324.188,271.254 C 325.427,273.768 326.709,276.889 327.037,278.190 C 329.635,288.506 319.607,296.780 310.087,292.175" stroke="#63BCFD" fill="#63BCFD" stroke-width="1" />
  </g><g id="rain 2"><path id="43" d="M 473.500,778.698 C 472.538,778.591 447.562,778.274 418,777.992 C 388.438,777.711 357.837,777.270 350,777.014 C 342.163,776.758 324.500,776.310 310.750,776.019 C 297,775.729 280.575,775.265 274.250,774.989 C 267.925,774.713 255.100,774.273 245.750,774.010 C 226.409,773.468 199.510,772.382 158.875,770.503 C 131.585,769.241 126.142,768.980 117,768.495 C 106.335,767.928 81.359,766.005 81.068,765.726 C 80.618,765.297 83.302,761.827 86.062,759.273 C 89.944,755.679 95.075,752.226 100.820,749.341 C 106.305,746.586 109.641,745.363 116.250,743.687 C 122.984,741.978 135.844,741.506 143.119,742.701 C 150.610,743.930 150.672,743.918 154.219,740.625 C 164.175,731.379 178.786,724.187 193.125,721.473 C 196.219,720.888 199.188,720.176 199.722,719.890 C 202.335,718.494 220.820,719.055 230.250,720.817 C 244.861,723.548 253.066,726.814 267.500,735.644 C 274.567,739.967 279.267,742.148 284.635,743.590 C 288.075,744.514 290.104,744.699 297,744.716 C 304.235,744.735 305.773,744.589 309.500,743.536 C 317.514,741.272 321.716,739.168 336.531,730.002 C 341.051,727.205 347.956,723.339 351.875,721.410 C 355.794,719.482 359,717.729 359,717.514 C 359,716.482 347.149,706.525 342,703.230 C 339.938,701.910 337.772,700.464 337.187,700.016 C 336.160,699.231 336.212,699.201 338.687,699.139 C 342.756,699.039 351.466,697.084 354.863,695.508 C 359.602,693.309 364.531,689.938 368.587,686.123 C 372.452,682.487 375.690,680.350 382.250,677.109 C 397.864,669.394 414.077,665.460 430.208,665.471 C 441.836,665.479 449.318,666.875 463,671.588 C 466.988,672.962 471.584,674.536 473.216,675.085 C 478.692,676.928 489.243,683.448 496.123,689.240 C 498.253,691.033 500.226,692.500 500.509,692.500 C 501.043,692.500 512.221,683.770 513.830,682.097 C 514.336,681.572 515.312,681.001 516,680.831 C 516.688,680.660 517.925,680.069 518.750,679.518 C 519.575,678.966 520.587,678.294 521,678.024 C 522.798,676.847 534.723,671.966 539.771,670.340 C 549.596,667.176 563.263,665.015 573.530,665.005 C 583.493,664.995 603.001,668.615 611.744,672.096 C 617.633,674.441 625.870,678.585 630.767,681.667 C 655.698,697.358 660.790,699.460 672.125,698.735 C 675.081,698.545 677.500,698.505 677.500,698.644 C 677.500,698.783 675.274,700.378 672.554,702.189 C 667.846,705.324 654.888,715.256 654.626,715.931 C 654.558,716.106 656.302,716.885 658.500,717.662 C 664.785,719.881 678.460,726.933 687.718,732.730 C 697.492,738.848 703.336,741.630 709.939,743.308 C 718.650,745.522 729.493,744.616 735.457,741.177 C 736.718,740.449 741.151,737.767 745.308,735.216 C 757.582,727.686 764.140,724.769 774.336,722.309 C 782.641,720.306 787.923,719.854 799.866,720.129 C 811.126,720.387 817.497,721.318 825.750,723.909 C 836.037,727.139 847.988,733.852 856.869,741.389 C 856.869,741.389 859.487,743.610 859.487,743.610 C 859.487,743.610 863.619,742.812 863.619,742.812 C 874.331,740.742 888.664,741.034 896,743.472 C 896.688,743.701 899.388,744.509 902,745.267 C 908.376,747.119 914.976,750.244 920.495,754.024 C 925.257,757.285 931.630,763.703 931.383,764.987 C 931.177,766.058 929.004,766.329 913.500,767.222 C 905.938,767.659 894.800,768.346 888.750,768.750 C 870.790,769.951 848.254,771.057 822.500,772.001 C 814.938,772.279 804.925,772.730 800.250,773.003 C 795.575,773.277 781.062,773.841 768,774.256 C 754.938,774.673 740.763,775.231 736.500,775.499 C 732.237,775.766 715.587,776.217 699.500,776.501 C 683.413,776.785 666.987,777.137 663,777.283 C 640.245,778.114 479.090,779.317 473.500,778.698M 492.215,746.524 C 499.606,741.712 507.971,739.112 517.500,738.667 C 523.130,738.404 524.286,738.505 529.153,739.684 C 535.232,741.159 540.510,743.217 544.752,745.772 C 546.330,746.722 547.792,747.500 548,747.500 C 548.208,747.500 550.507,745.741 553.108,743.592 C 561.524,736.637 568.923,731.573 579.875,725.277 C 582.144,723.972 583.987,722.758 583.971,722.577 C 583.956,722.398 580.187,720.403 575.596,718.145 C 561.865,711.393 552.987,709.110 538.685,708.652 C 513.280,707.838 491.986,715.108 470.587,731.899 C 470.587,731.899 469.423,732.812 469.423,732.812 C 469.423,732.812 474.837,736.856 474.837,736.856 C 477.814,739.081 482.163,742.604 484.500,744.686 C 486.837,746.768 488.846,748.477 488.965,748.486 C 489.084,748.494 490.546,747.611 492.215,746.524" stroke="#2FAEF8" fill="#2FAEF8" stroke-width="1" />
  <path id="56" d="M 703.740,648.903 C 702.871,644.819 698.861,637.599 694.983,633.139 C 690.956,628.505 682.849,623.234 676.716,621.260 C 676.716,621.260 674.183,620.445 674.183,620.445 C 674.183,620.445 673.540,615.847 673.540,615.847 C 671.231,599.355 660.210,585.974 643.682,579.601 C 637.504,577.218 630.908,576.253 625.522,576.943 C 618.097,577.895 611.693,580.602 606.444,585.008 C 606.444,585.008 604.138,586.943 604.138,586.943 C 604.138,586.943 604.335,583.596 604.335,583.596 C 604.443,581.756 604.717,576.702 604.942,572.366 C 605.167,568.030 605.499,564.334 605.681,564.153 C 605.862,563.971 606.639,564.426 607.408,565.162 C 608.176,565.898 609.097,566.500 609.456,566.500 C 609.813,566.500 610.926,567.145 611.928,567.934 C 614.780,570.180 618.499,571.839 621.504,572.206 C 630.037,573.246 637,567.714 637,559.894 C 637,554.363 639.305,556.997 605.375,523.755 C 605.375,523.755 583,501.832 583,501.832 C 583,501.832 583,493.998 583,493.998 C 583,489.689 582.851,478.027 582.669,468.082 C 582.669,468.082 582.338,450 582.338,450 C 582.338,450 566.645,450 566.645,450 C 566.645,450 550.952,450 550.952,450 C 550.952,450 551.283,459.970 551.283,459.970 C 551.283,459.970 551.613,469.940 551.613,469.940 C 551.613,469.940 531.807,450.399 531.807,450.399 C 520.913,439.651 512,430.490 512,430.041 C 512,428.880 505.154,422.301 502.642,421.048 C 497.738,418.603 492.035,418.677 487.031,421.252 C 485.450,422.065 474.922,432.195 452.750,454.233 C 406.023,500.680 363.118,543.034 360.250,545.545 C 354.778,550.338 353.078,552.366 352.279,555.059 C 351.850,556.501 351.500,558.233 351.500,558.908 C 351.500,560.851 352.585,564.057 354.072,566.509 C 355.216,568.394 356.158,569.129 359.764,570.949 C 363.798,572.986 364.285,573.113 367.072,572.861 C 371.483,572.461 374.640,570.657 380.021,565.464 C 382.622,562.953 385.200,560.724 385.750,560.510 C 386.300,560.295 386.946,560.037 387.185,559.935 C 387.424,559.833 387.692,565.038 387.782,571.500 C 387.872,577.962 388.087,584.938 388.262,587 C 388.262,587 388.579,590.750 388.579,590.750 C 388.579,590.750 386.731,590.880 386.731,590.880 C 384.069,591.066 377.354,592.852 372.990,594.534 C 362.522,598.571 352.406,608.096 348.733,617.375 C 348.270,618.544 347.694,619.500 347.453,619.500 C 347.212,619.500 344.678,618.718 341.820,617.762 C 336.135,615.860 328.497,614.719 324.343,615.152 C 308.234,616.829 293.196,627.888 287.692,642.105 C 287.692,642.105 286.280,645.750 286.280,645.750 C 286.280,645.750 285.945,643.500 285.945,643.500 C 285.034,637.389 284.371,566.330 285.028,545.250 C 285.368,534.327 285.741,531.999 288.308,524.750 C 290.437,518.737 295.327,509.433 298.720,504.936 C 308.583,491.865 323.700,482.978 338.159,481.748 C 344.406,481.217 343.840,481.846 344.132,475.131 C 344.678,462.533 350.183,450.265 359.951,439.883 C 366.179,433.263 371.935,429.372 380.548,425.957 C 389.231,422.515 397.415,421.363 405,422.514 C 406.788,422.784 409.175,423.144 410.305,423.312 C 410.305,423.312 412.360,423.616 412.360,423.616 C 412.360,423.616 412.979,419.433 412.979,419.433 C 415.683,401.168 423.484,386.344 437.558,372.726 C 444.162,366.337 446.586,364.445 453.099,360.590 C 461.567,355.578 469.932,352.464 479.750,350.668 C 486.031,349.519 498.854,349.512 504.500,350.654 C 521.540,354.102 538.913,364.394 549.610,377.380 C 559.812,389.765 564.948,401.521 566.262,415.500 C 566.708,420.248 567.101,421 569.143,421 C 570.027,421 572.438,421.325 574.500,421.723 C 588.370,424.394 601.211,432.454 609.995,444 C 619.895,457.014 624.097,472.327 623.158,491.964 C 622.957,496.176 623.023,498.500 623.343,498.500 C 623.616,498.500 626.071,498.015 628.795,497.422 C 635.540,495.955 644.745,495.966 651.867,497.450 C 672.333,501.714 690.875,515.808 700.391,534.337 C 703.600,540.582 705.705,546.897 707.011,554.197 C 707.962,559.509 708,561.721 707.878,605 C 707.878,605 707.750,650.250 707.750,650.250 C 707.750,650.250 705.921,650.403 705.921,650.403 C 704.212,650.545 704.068,650.447 703.740,648.903" stroke="#ACDCFD" fill="#ACDCFD" stroke-width="1" />
  <path id="162" d="M 496,689.200 C 493.938,687.427 490.620,684.889 488.627,683.560 C 488.627,683.560 485.005,681.144 485.005,681.144 C 485.005,681.144 488.377,680.826 488.377,680.826 C 492.598,680.427 511.241,680.509 513.215,680.934 C 514.662,681.246 514.668,681.261 513.715,682.215 C 511.589,684.341 500.980,692.497 500.385,692.462 C 500.036,692.441 498.062,690.973 496,689.200" stroke="#F1F4F6" fill="#F1F4F6" stroke-width="1" />
  <path id="47" d="M 336,699.009 C 335.038,698.811 331.663,697.277 328.500,695.601 C 317.596,689.819 305.930,685.707 294,683.438 C 288.485,682.390 286.310,682.250 275.500,682.250 C 264.687,682.250 262.605,682.384 257.750,683.390 C 254.725,684.018 251.645,684.733 250.905,684.979 C 248.630,685.736 248.228,684.634 249.228,680.375 C 251.239,671.816 253.495,667.194 258.110,662.188 C 264.096,655.693 272.623,651.784 283.111,650.726 C 284.959,650.539 286.673,650.130 286.918,649.818 C 287.163,649.505 287.979,647.295 288.731,644.906 C 291.913,634.792 298.658,626.846 308.538,621.571 C 319.693,615.614 330.051,615.232 344.402,620.249 C 346.411,620.951 348.272,621.390 348.539,621.226 C 348.805,621.062 349.674,619.491 350.469,617.736 C 353.378,611.322 358.943,604.489 364.189,600.891 C 369.856,597.005 379.163,593.427 385.459,592.715 C 385.459,592.715 388.401,592.382 388.401,592.382 C 388.401,592.382 388.726,596.566 388.726,596.566 C 388.905,598.867 388.984,617.236 388.901,637.385 C 388.901,637.385 388.750,674.020 388.750,674.020 C 388.750,674.020 385.250,675.621 385.250,675.621 C 378.423,678.742 372.276,682.609 368.587,686.101 C 361.774,692.552 354.714,696.374 346.750,697.926 C 340.015,699.237 338.064,699.434 336,699.009" stroke="#06C7A2" fill="#06C7A2" stroke-width="1" />
  <path id="51" d="M 484.500,744.686 C 482.163,742.604 477.814,739.081 474.837,736.856 C 474.837,736.856 469.423,732.812 469.423,732.812 C 469.423,732.812 470.587,731.899 470.587,731.899 C 484.909,720.662 498.519,714.019 513.750,710.835 C 523.549,708.786 528.725,708.332 538.685,708.652 C 552.987,709.110 561.865,711.393 575.596,718.145 C 580.187,720.403 583.956,722.398 583.971,722.577 C 583.987,722.758 582.144,723.972 579.875,725.277 C 568.923,731.573 561.524,736.637 553.108,743.592 C 550.507,745.741 548.208,747.500 548,747.500 C 547.792,747.500 546.330,746.722 544.752,745.772 C 540.510,743.217 535.232,741.159 529.153,739.684 C 524.286,738.505 523.130,738.404 517.500,738.667 C 507.971,739.112 499.606,741.712 492.215,746.524 C 490.546,747.611 489.084,748.494 488.965,748.486 C 488.846,748.477 486.837,746.768 484.500,744.686" stroke="#30537C" fill="#30537C" stroke-width="1" />
  <path id="51" d="M 289.250,744.529 C 281.823,743.305 276.404,741.091 267.500,735.644 C 253.066,726.814 244.861,723.548 230.250,720.817 C 224.076,719.663 211.879,718.833 205.631,719.140 C 201.406,719.348 200.077,719.271 200.329,718.834 C 202.672,714.784 211.867,705.558 218.667,700.435 C 229.446,692.312 242.696,686.536 257.750,683.397 C 262.618,682.382 264.659,682.250 275.500,682.250 C 286.310,682.250 288.485,682.390 294,683.438 C 301.320,684.830 311.265,687.776 317.735,690.468 C 328.095,694.780 342.240,702.756 348.250,707.674 C 352.497,711.150 359,717.102 359,717.514 C 359,717.729 355.794,719.482 351.875,721.410 C 347.956,723.339 341.051,727.205 336.531,730.002 C 316.622,742.319 311.192,744.441 298.750,744.760 C 294.900,744.860 290.625,744.755 289.250,744.529" stroke="#30537C" fill="#30537C" stroke-width="1" />
  <path id="100" d="M 551.571,466 C 551.506,464.212 551.332,459.882 551.185,456.375 C 551.185,456.375 550.918,450 550.918,450 C 550.918,450 566.708,450 566.708,450 C 566.708,450 582.500,450 582.500,450 C 582.500,450 582.450,456.125 582.450,456.125 C 582.423,459.493 582.240,461.688 582.044,461 C 581.777,460.063 581.383,459.774 580.469,459.846 C 579.798,459.899 573.175,460.058 565.750,460.197 C 565.750,460.197 552.250,460.452 552.250,460.452 C 552.250,460.452 551.970,464.851 551.970,464.851 C 551.697,469.130 551.686,469.161 551.571,466" stroke="#94343C" fill="#94343C" stroke-width="1" />
  <path id="149" d="M 247.657,684.688 C 247.297,683.749 248.319,676.530 249.089,674.575 C 250.973,669.793 251.981,667.864 254.179,664.833 C 256.839,661.165 261.764,656.740 266.079,654.141 C 269.953,651.808 276.581,649.561 280.868,649.127 C 280.868,649.127 284.593,648.750 284.593,648.750 C 284.593,648.750 284.525,640.001 284.525,640.001 C 284.488,635.189 284.339,630.689 284.195,630.001 C 283.941,628.793 283.959,628.784 284.716,629.721 C 285.311,630.457 285.509,631.964 285.537,635.971 C 285.558,638.874 285.733,642.263 285.927,643.500 C 285.927,643.500 286.280,645.750 286.280,645.750 C 286.280,645.750 287.692,642.105 287.692,642.105 C 293.196,627.888 308.234,616.829 324.343,615.152 C 328.497,614.719 336.135,615.860 341.820,617.762 C 344.678,618.718 347.212,619.500 347.453,619.500 C 347.694,619.500 348.270,618.544 348.733,617.375 C 351.479,610.437 359.466,601.609 366.678,597.542 C 373.216,593.855 386.810,589.806 388.353,591.086 C 389.521,592.055 389.041,592.358 385.813,592.688 C 379.383,593.347 369.998,596.908 364.189,600.891 C 358.943,604.489 353.378,611.322 350.469,617.736 C 349.674,619.491 348.805,621.062 348.539,621.226 C 348.272,621.390 346.411,620.951 344.402,620.249 C 333.376,616.394 324.312,615.740 316.500,618.232 C 308.834,620.678 301.268,625.463 296.460,630.906 C 293.368,634.406 290.267,640.022 288.731,644.906 C 287.979,647.295 287.163,649.505 286.918,649.818 C 286.673,650.130 284.959,650.539 283.111,650.726 C 278.111,651.231 271.849,652.807 268.878,654.308 C 260.060,658.765 253.492,666.077 250.832,674.399 C 249.069,679.913 248.351,683.968 249,684.750 C 249.511,685.365 249.474,685.500 248.796,685.500 C 248.340,685.500 247.828,685.135 247.657,684.688" stroke="#B9DEDA" fill="#B9DEDA" stroke-width="1" />
  <path id="160" d="M 585.854,505.104 C 585.854,505.104 582.484,501.709 582.484,501.709 C 582.484,501.709 582.625,487.979 582.625,487.979 C 582.625,487.979 582.766,474.250 582.766,474.250 C 582.766,474.250 582.884,487.988 582.884,487.988 C 582.884,487.988 583,501.725 583,501.725 C 583,501.725 586.361,505.113 586.361,505.113 C 588.211,506.976 589.611,508.500 589.473,508.500 C 589.336,508.500 587.707,506.971 585.854,505.104" stroke="#C7666D" fill="#C7666D" stroke-width="1" />
  <path id="153" d="M 389,671.971 C 389,671.078 389.209,670.569 389.500,670.750 C 389.775,670.920 390,671.608 390,672.279 C 390,672.951 389.775,673.500 389.500,673.500 C 389.225,673.500 389,672.812 389,671.971" stroke="#EAF8F1" fill="#EAF8F1" stroke-width="1" />
  <path id="51" d="M 709.750,743.284 C 703.297,741.612 697.375,738.775 687.718,732.730 C 678.460,726.933 664.785,719.881 658.500,717.662 C 656.302,716.885 654.558,716.106 654.626,715.931 C 654.694,715.755 657.652,713.326 661.198,710.532 C 670.170,703.464 679.707,697.226 687.878,693.080 C 713.402,680.129 741.856,678.135 767.921,687.471 C 784.256,693.323 798.707,703.625 808.336,716.281 C 808.336,716.281 811.402,720.312 811.402,720.312 C 811.402,720.312 800.220,720.092 800.220,720.092 C 787.977,719.851 782.625,720.309 774.336,722.309 C 764.140,724.769 757.582,727.686 745.308,735.216 C 741.151,737.767 736.718,740.449 735.457,741.177 C 729.506,744.609 718.380,745.521 709.750,743.284" stroke="#30537C" fill="#30537C" stroke-width="1" />
  <path id="47" d="M 661.500,697.995 C 655.576,696.638 649.014,693.152 630.767,681.667 C 623.918,677.356 610.276,670.987 605.375,669.811 C 605.375,669.811 604,669.481 604,669.481 C 604,669.481 604,628.265 604,628.265 C 604,628.265 604,587.049 604,587.049 C 604,587.049 606.260,585.150 606.260,585.150 C 611.602,580.659 618.086,577.897 625.522,576.943 C 637.366,575.424 652.264,581.494 662.027,591.815 C 668.476,598.634 672.226,606.461 673.540,615.847 C 673.540,615.847 674.183,620.445 674.183,620.445 C 674.183,620.445 676.716,621.260 676.716,621.260 C 682.849,623.234 690.956,628.505 694.983,633.139 C 698.839,637.574 702.871,644.819 703.728,648.848 C 703.728,648.848 704.068,650.447 704.068,650.447 C 704.068,650.447 709.909,650.162 709.909,650.162 C 720.613,649.638 728.140,651.942 735.765,658.077 C 742.220,663.269 747.683,671.199 749.957,678.678 C 750.531,680.562 751,682.255 751,682.438 C 751,682.620 747.344,682.450 742.875,682.059 C 721.862,680.221 700.188,685.391 680.673,696.898 C 678.338,698.274 677.658,698.414 671.946,698.681 C 666.849,698.918 664.996,698.797 661.500,697.995" stroke="#06C7A2" fill="#06C7A2" stroke-width="1" />
  <path id="155" d="M 356.796,569.497 C 354.284,567.891 351.500,562.324 351.500,558.908 C 351.500,558.233 351.850,556.501 352.279,555.059 C 353.078,552.366 354.778,550.338 360.250,545.545 C 363.118,543.034 406.023,500.680 452.750,454.233 C 474.922,432.195 485.450,422.065 487.031,421.252 C 492.035,418.677 497.738,418.603 502.642,421.048 C 505.082,422.265 512,428.865 512,429.977 C 512,430.390 510.031,428.788 507.625,426.416 C 501.942,420.812 500.875,420.271 495.500,420.260 C 487.916,420.243 491.648,416.996 438.245,470.053 C 384.820,523.131 368.282,539.413 360.132,546.956 C 356.678,550.153 354.126,552.957 353.507,554.236 C 351.372,558.646 352.755,564.771 356.764,568.665 C 358.881,570.721 358.885,570.832 356.796,569.497" stroke="#C5D9F3" fill="#C5D9F3" stroke-width="1" />
  </g><g id="rain 1"><path id="42" d="M 579.206,497.940 C 577.580,496.530 570.712,489.914 563.942,483.238 C 563.942,483.238 551.634,471.099 551.634,471.099 C 551.634,471.099 551.856,466.175 551.856,466.175 C 551.979,463.466 552.120,461.072 552.172,460.853 C 552.222,460.635 558.337,460.341 565.758,460.200 C 573.178,460.058 579.793,459.899 580.456,459.846 C 581.404,459.771 581.750,460.070 582.082,461.250 C 582.472,462.636 582.708,499.958 582.330,500.337 C 582.237,500.429 580.831,499.351 579.206,497.940" stroke="#AA333C" fill="#AA333C" stroke-width="1" />
  </g><g id="house"><path id="32" d="M 480.591,678.581 C 478.478,677.388 476.019,676.106 475.125,675.731 C 473.651,675.115 473.499,674.851 473.491,672.900 C 473.487,671.717 473.349,656.013 473.187,638 C 472.890,605.275 472.891,605.247 473.973,602.396 C 475.205,599.149 478.855,595.456 481.788,594.487 C 484.574,593.568 511.200,594.076 513.530,595.093 C 515.784,596.077 518.875,599.657 519.471,601.973 C 519.722,602.951 520,620.612 520.089,641.222 C 520.089,641.222 520.250,678.694 520.250,678.694 C 520.250,678.694 518.596,679.660 518.596,679.660 C 517.059,680.558 515.784,680.630 500.687,680.688 C 500.687,680.688 484.433,680.750 484.433,680.750 C 484.433,680.750 480.591,678.581 480.591,678.581M 516.033,642.982 C 516.764,642.591 517,641.928 517,640.274 C 517,637.196 516.625,636.500 514.964,636.500 C 513.275,636.500 512.500,637.660 512.500,640.189 C 512.500,641.436 512.822,642.168 513.611,642.721 C 514.930,643.645 514.817,643.633 516.033,642.982" stroke="#E03F47" fill="#E03F47" stroke-width="1" />
  <path id="43" d="M 563.833,601.667 C 563.650,601.483 563.500,597.208 563.500,592.167 C 563.500,592.167 563.500,583 563.500,583 C 563.500,583 571.500,583 571.500,583 C 571.500,583 579.500,583 579.500,583 C 579.500,583 579.500,592.177 579.500,592.177 C 579.500,592.177 579.500,601.354 579.500,601.354 C 579.500,601.354 575.674,601.677 575.674,601.677 C 570.706,602.096 564.258,602.091 563.833,601.667" stroke="#2FAEF8" fill="#2FAEF8" stroke-width="1" />
  <path id="162" d="M 520.328,670.080 C 520.149,665.774 520.001,649.087 519.999,633 C 519.996,615.236 519.799,603.050 519.499,601.967 C 518.847,599.620 515.763,596.067 513.530,595.092 C 512.098,594.466 508.961,594.275 497.466,594.112 C 484.546,593.930 482.993,593.996 481.216,594.805 C 480.135,595.297 478.712,595.823 478.055,595.975 C 477.397,596.126 475.998,597.268 474.944,598.511 C 472.381,601.538 471.909,604.873 471.918,619.869 C 471.922,626.951 471.733,631.606 471.433,631.792 C 471.163,631.958 471.075,632.706 471.240,633.452 C 471.404,634.199 471.651,639.634 471.788,645.530 C 472.284,666.691 472.591,673.255 473.115,673.887 C 474.272,675.283 472.744,674.981 465.161,672.311 C 456.514,669.266 447.337,666.816 441.527,665.999 C 435.917,665.211 423.394,665.350 417.181,666.269 C 408.752,667.516 399.563,669.875 393.106,672.447 C 389.860,673.740 390,673.745 390,672.350 C 390,671.717 389.786,670.986 389.524,670.725 C 389.233,670.433 389.015,655.117 388.962,631.250 C 388.913,609.800 388.679,590.675 388.440,588.750 C 388.202,586.825 387.906,579.513 387.783,572.500 C 387.659,565.487 387.546,559.667 385.726,560.393 C 385.490,560.156 405.573,540.125 427.250,518.978 C 447.019,499.692 489.798,457.726 492.072,455.387 C 493.349,454.075 494.728,453 495.138,453 C 495.982,453 501.500,459.247 501.500,460.203 C 501.500,460.957 515.388,474.671 516.625,475.138 C 517.106,475.320 517.500,475.774 517.500,476.147 C 517.500,476.957 519.942,479.358 520.400,479 C 520.577,478.863 520.972,479.255 521.279,479.872 C 522.019,481.356 523.594,483.072 523.918,482.748 C 524.325,482.341 526.500,484.592 526.500,485.421 C 526.500,485.831 526.647,486.019 526.827,485.840 C 527.292,485.375 528.974,486.969 556.250,513.716 C 569.725,526.929 585.020,541.904 590.240,546.995 C 608.769,565.065 610.187,566.500 609.500,566.500 C 609.117,566.500 608.176,565.898 607.408,565.162 C 606.639,564.426 605.856,563.977 605.667,564.167 C 604.700,565.133 604.059,590.419 604.030,628.659 C 604.002,667.374 603.953,669.554 603.125,669.314 C 596.465,667.389 580.047,664.999 573.530,665.005 C 558.689,665.020 542.586,668.481 528.250,674.736 C 524.950,676.177 521.890,677.480 521.452,677.633 C 520.751,677.876 520.613,676.950 520.328,670.080M 428.886,614.205 C 428.886,614.205 428.750,604.910 428.750,604.910 C 428.750,604.910 423.065,604.655 423.065,604.655 C 419.939,604.514 416.170,604.551 414.690,604.736 C 414.690,604.736 412,605.072 412,605.072 C 412,605.072 412,614.286 412,614.286 C 412,614.286 412,623.500 412,623.500 C 412,623.500 420.511,623.500 420.511,623.500 C 420.511,623.500 429.022,623.500 429.022,623.500 C 429.022,623.500 428.886,614.205 428.886,614.205M 447.387,614.125 C 447.387,614.125 447.522,605 447.522,605 C 447.522,605 439.184,605 439.184,605 C 439.184,605 430.845,605 430.845,605 C 430.845,605 431.173,611.829 431.173,611.829 C 431.353,615.585 431.500,619.753 431.500,621.091 C 431.500,621.091 431.500,623.525 431.500,623.525 C 431.500,623.525 439.375,623.388 439.375,623.388 C 439.375,623.388 447.250,623.250 447.250,623.250 C 447.250,623.250 447.387,614.125 447.387,614.125M 561,613.966 C 561,613.966 561,604.431 561,604.431 C 561,604.431 553.375,604.539 553.375,604.539 C 549.182,604.598 545.469,604.750 545.125,604.877 C 544.656,605.049 544.500,607.403 544.500,614.303 C 544.500,614.303 544.500,623.500 544.500,623.500 C 544.500,623.500 552.750,623.500 552.750,623.500 C 552.750,623.500 561,623.500 561,623.500 C 561,623.500 561,613.966 561,613.966M 579.677,623.118 C 579.807,622.908 579.787,618.633 579.631,613.618 C 579.631,613.618 579.350,604.500 579.350,604.500 C 579.350,604.500 571.425,604.500 571.425,604.500 C 571.425,604.500 563.500,604.500 563.500,604.500 C 563.500,604.500 563.500,613.667 563.500,613.667 C 563.500,618.708 563.650,622.983 563.833,623.167 C 564.299,623.633 579.388,623.587 579.677,623.118M 428.887,592.625 C 428.887,592.625 429.022,583.500 429.022,583.500 C 429.022,583.500 420.512,583.500 420.512,583.500 C 420.512,583.500 412,583.500 412,583.500 C 412,583.500 412,592.417 412,592.417 C 412,597.321 412.133,601.466 412.296,601.629 C 412.458,601.792 416.227,601.885 420.671,601.837 C 420.671,601.837 428.750,601.750 428.750,601.750 C 428.750,601.750 428.887,592.625 428.887,592.625M 447,593.010 C 447,582.370 447.978,583.393 438,583.606 C 438,583.606 431.250,583.750 431.250,583.750 C 431.250,583.750 431.113,592.231 431.113,592.231 C 431.037,596.896 431.086,601.003 431.221,601.356 C 431.408,601.843 433.365,602 439.235,602 C 439.235,602 447,602 447,602 C 447,602 447,593.010 447,593.010M 561,592.500 C 561,592.500 561,583 561,583 C 561,583 552.750,583 552.750,583 C 552.750,583 544.500,583 544.500,583 C 544.500,583 544.500,592.500 544.500,592.500 C 544.500,592.500 544.500,602 544.500,602 C 544.500,602 552.750,602 552.750,602 C 552.750,602 561,602 561,602 C 561,602 561,592.500 561,592.500M 575.674,601.677 C 575.674,601.677 579.500,601.354 579.500,601.354 C 579.500,601.354 579.500,592.177 579.500,592.177 C 579.500,592.177 579.500,583 579.500,583 C 579.500,583 571.500,583 571.500,583 C 571.500,583 563.500,583 563.500,583 C 563.500,583 563.500,592.167 563.500,592.167 C 563.500,597.208 563.650,601.483 563.833,601.667 C 564.258,602.091 570.706,602.096 575.674,601.677M 503.132,541.433 C 505.980,539.980 509.478,536.224 511.250,532.718 C 512.634,529.981 512.750,529.341 512.750,524.488 C 512.750,519.551 512.649,519.020 511.108,515.892 C 508.411,510.415 502.845,506.657 496.652,506.130 C 490.644,505.620 485.415,508.080 481.257,513.375 C 478.310,517.128 477.390,520.009 477.327,525.688 C 477.284,529.563 477.452,530.583 478.443,532.463 C 480.087,535.580 484.027,539.583 487.094,541.253 C 491.475,543.637 498.653,543.718 503.132,541.433" stroke="#F1F4F6" fill="#F1F4F6" stroke-width="1" />
  <path id="59" d="M 412.296,601.629 C 412.133,601.466 412,597.321 412,592.417 C 412,592.417 412,583.500 412,583.500 C 412,583.500 420.512,583.500 420.512,583.500 C 420.512,583.500 429.022,583.500 429.022,583.500 C 429.022,583.500 428.887,592.625 428.887,592.625 C 428.887,592.625 428.750,601.750 428.750,601.750 C 428.750,601.750 420.671,601.837 420.671,601.837 C 416.227,601.885 412.458,601.792 412.296,601.629" stroke="#63BCFD" fill="#63BCFD" stroke-width="1" />
  <path id="59" d="M 412,614.286 C 412,614.286 412,605.072 412,605.072 C 412,605.072 414.690,604.736 414.690,604.736 C 416.170,604.551 419.939,604.514 423.065,604.655 C 423.065,604.655 428.750,604.910 428.750,604.910 C 428.750,604.910 428.886,614.205 428.886,614.205 C 428.886,614.205 429.022,623.500 429.022,623.500 C 429.022,623.500 420.511,623.500 420.511,623.500 C 420.511,623.500 412,623.500 412,623.500 C 412,623.500 412,614.286 412,614.286" stroke="#63BCFD" fill="#63BCFD" stroke-width="1" />
  <path id="43" d="M 431.221,601.356 C 431.086,601.003 431.037,596.896 431.113,592.231 C 431.113,592.231 431.250,583.750 431.250,583.750 C 431.250,583.750 438,583.606 438,583.606 C 447.978,583.393 447,582.370 447,593.010 C 447,593.010 447,602 447,602 C 447,602 439.235,602 439.235,602 C 433.365,602 431.408,601.843 431.221,601.356" stroke="#2FAEF8" fill="#2FAEF8" stroke-width="1" />
  <path id="59" d="M 563.833,623.167 C 563.650,622.983 563.500,618.708 563.500,613.667 C 563.500,613.667 563.500,604.500 563.500,604.500 C 563.500,604.500 571.425,604.500 571.425,604.500 C 571.425,604.500 579.350,604.500 579.350,604.500 C 579.350,604.500 579.631,613.618 579.631,613.618 C 579.787,618.633 579.807,622.908 579.677,623.118 C 579.388,623.587 564.299,623.633 563.833,623.167" stroke="#63BCFD" fill="#63BCFD" stroke-width="1" />
  <path id="59" d="M 431.500,621.091 C 431.500,619.753 431.353,615.585 431.173,611.829 C 431.173,611.829 430.845,605 430.845,605 C 430.845,605 439.184,605 439.184,605 C 439.184,605 447.522,605 447.522,605 C 447.522,605 447.387,614.125 447.387,614.125 C 447.387,614.125 447.250,623.250 447.250,623.250 C 447.250,623.250 439.375,623.388 439.375,623.388 C 439.375,623.388 431.500,623.525 431.500,623.525 C 431.500,623.525 431.500,621.091 431.500,621.091" stroke="#63BCFD" fill="#63BCFD" stroke-width="1" />
  <path id="59" d="M 544.500,614.303 C 544.500,607.403 544.656,605.049 545.125,604.877 C 545.469,604.750 549.182,604.598 553.375,604.539 C 553.375,604.539 561,604.431 561,604.431 C 561,604.431 561,613.966 561,613.966 C 561,613.966 561,623.500 561,623.500 C 561,623.500 552.750,623.500 552.750,623.500 C 552.750,623.500 544.500,623.500 544.500,623.500 C 544.500,623.500 544.500,614.303 544.500,614.303" stroke="#63BCFD" fill="#63BCFD" stroke-width="1" />
  <path id="43" d="M 544.500,592.500 C 544.500,592.500 544.500,583 544.500,583 C 544.500,583 552.750,583 552.750,583 C 552.750,583 561,583 561,583 C 561,583 561,592.500 561,592.500 C 561,592.500 561,602 561,602 C 561,602 552.750,602 552.750,602 C 552.750,602 544.500,602 544.500,602 C 544.500,602 544.500,592.500 544.500,592.500" stroke="#2FAEF8" fill="#2FAEF8" stroke-width="1" />
  <path id="43" d="M 492.724,542.968 C 488.876,542.589 485.267,540.658 482.050,537.256 C 478.087,533.066 477.268,531.060 477.327,525.688 C 477.358,522.949 477.702,520.150 478.188,518.688 C 479.930,513.448 485.986,507.738 491.152,506.461 C 498.815,504.567 507.568,508.704 511.108,515.892 C 512.649,519.020 512.750,519.551 512.750,524.488 C 512.750,529.341 512.634,529.981 511.250,532.718 C 509.478,536.224 505.980,539.980 503.132,541.433 C 500.526,542.763 496.563,543.347 492.724,542.968M 496.060,537.961 C 496.230,535.920 496.399,532.201 496.435,529.697 C 496.435,529.697 496.500,525.143 496.500,525.143 C 496.500,525.143 501.625,524.806 501.625,524.806 C 510.932,524.194 512.958,523.727 510.625,522.735 C 510.144,522.530 506.825,522.225 503.250,522.057 C 503.250,522.057 496.750,521.750 496.750,521.750 C 496.750,521.750 496.500,515.664 496.500,515.664 C 496.363,512.317 496.077,509.408 495.866,509.198 C 494.895,508.232 494.342,510.351 494.113,515.918 C 494.113,515.918 493.867,521.895 493.867,521.895 C 493.867,521.895 490.178,522.240 490.178,522.240 C 488.150,522.431 484.636,522.515 482.370,522.428 C 482.370,522.428 478.250,522.269 477.933,525 C 477.933,525 485.967,525 485.967,525 C 485.967,525 494,525 494,525 C 494,525 494.005,530.875 494.005,530.875 C 494.010,538.076 494.447,542.101 495.197,541.854 C 495.501,541.754 495.889,540.002 496.060,537.961" stroke="#2FAEF8" fill="#2FAEF8" stroke-width="1" />
  <path id="159" d="M 472.755,673.375 C 472.529,672.715 472.200,663.243 471.788,645.530 C 471.650,639.634 471.404,634.199 471.240,633.452 C 471.075,632.706 471.163,631.958 471.433,631.792 C 471.733,631.606 471.922,626.951 471.918,619.869 C 471.909,604.872 472.381,601.538 474.944,598.511 C 475.998,597.268 477.283,596.167 477.798,596.066 C 478.473,595.933 478.161,596.506 476.687,598.105 C 472.712,602.417 472.820,601.136 473.182,639.837 C 473.358,658.626 473.382,674 473.235,674 C 473.089,674 472.873,673.719 472.755,673.375" stroke="#FDF3EF" fill="#FDF3EF" stroke-width="1" />
  <path id="37" d="M 513.611,642.721 C 512.822,642.168 512.500,641.436 512.500,640.189 C 512.500,637.660 513.275,636.500 514.964,636.500 C 516.625,636.500 517,637.196 517,640.274 C 517,641.928 516.764,642.591 516.033,642.982 C 514.817,643.633 514.930,643.645 513.611,642.721" stroke="#885237" fill="#885237" stroke-width="1" />
  <path id="32" d="M 360.740,571.321 C 355.774,569.009 352.514,564.144 352.505,559.033 C 352.498,554.872 353.789,552.827 360.132,546.956 C 368.282,539.413 384.820,523.131 438.245,470.053 C 491.648,416.996 487.916,420.243 495.500,420.260 C 498.697,420.267 500.183,420.502 501.498,421.211 C 503.553,422.318 547.176,465.248 551.080,470.004 C 553.997,473.559 574.357,493.750 579.375,498.063 C 581.094,499.541 582.500,500.993 582.500,501.289 C 582.500,501.586 586.381,505.522 591.125,510.037 C 595.869,514.552 606.050,524.427 613.750,531.981 C 638.180,555.948 637,554.531 637,559.894 C 637,569.867 625.899,575.453 615.971,570.476 C 613.211,569.091 609.958,566.337 603.250,559.703 C 601.325,557.799 590.413,547.146 579,536.029 C 567.587,524.911 544.086,501.682 526.774,484.408 C 509.463,467.134 495.095,453 494.846,453 C 494.597,453 493.349,454.075 492.072,455.387 C 489.875,457.647 448.868,497.878 427.250,518.986 C 421.750,524.356 407.897,537.990 396.467,549.284 C 373.125,572.347 372.925,572.504 366.777,572.495 C 364.137,572.491 362.619,572.196 360.740,571.321" stroke="#E03F47" fill="#E03F47" stroke-width="1" />
  <path id="162" d="M 494.326,539.393 C 494.151,537.939 494.007,534.106 494.005,530.875 C 494.005,530.875 494,525 494,525 C 494,525 485.967,525 485.967,525 C 485.967,525 477.933,525 478.250,522.269 C 478.250,522.269 482.370,522.428 482.370,522.428 C 484.636,522.515 488.150,522.431 490.178,522.240 C 490.178,522.240 493.867,521.895 493.867,521.895 C 493.867,521.895 494.113,515.918 494.113,515.918 C 494.342,510.351 494.895,508.232 495.866,509.198 C 496.077,509.408 496.363,512.317 496.500,515.664 C 496.500,515.664 496.750,521.750 496.750,521.750 C 496.750,521.750 503.250,522.057 503.250,522.057 C 506.825,522.225 510.144,522.530 510.625,522.735 C 512.958,523.727 510.932,524.194 501.625,524.806 C 501.625,524.806 496.500,525.143 496.500,525.143 C 496.500,525.143 496.435,529.697 496.435,529.697 C 496.336,536.545 495.817,541.649 495.197,541.854 C 494.863,541.963 494.517,540.986 494.326,539.393" stroke="#F1F4F6" fill="#F1F4F6" stroke-width="1" />
  <path id="159" d="M 529.019,487.269 C 528.096,486.317 527.153,485.656 526.921,485.799 C 526.689,485.942 526.500,485.748 526.500,485.366 C 526.500,484.577 524.310,482.356 523.918,482.748 C 523.597,483.070 522.022,481.360 521.294,479.901 C 520.995,479.300 520.600,478.909 520.415,479.029 C 519.929,479.349 517.500,476.947 517.500,476.147 C 517.500,475.774 517.106,475.320 516.625,475.138 C 515.230,474.611 501.625,461.030 501.318,459.858 C 501.166,459.274 507.781,465.534 516.020,473.770 C 524.259,482.005 531,488.801 531,488.872 C 531,489.216 530.561,488.860 529.019,487.269" stroke="#FDF3EF" fill="#FDF3EF" stroke-width="1" />
  </g></svg>